<?xml version="1.0" encoding="UTF-8"?>
<svg version="1.1" xmlns="http://www.w3.org/2000/svg" width="1024" height="1024">
<path d="M0 0 C337.92 0 675.84 0 1024 0 C1024 337.92 1024 675.84 1024 1024 C686.08 1024 348.16 1024 0 1024 C0 686.08 0 348.16 0 0 Z " fill="#FEFEFE" transform="translate(0,0)"/>
<path d="M0 0 C0.97907318 -0.01243744 1.95814636 -0.02487488 2.96688843 -0.03768921 C24.44249307 -0.25775702 44.77662627 -0.03861185 65.703125 5.2734375 C67.04166349 5.58725313 68.38020473 5.90105705 69.71875 6.21484375 C73.11389722 7.09521332 76.38636951 8.13238556 79.703125 9.2734375 C80.50878906 9.54526855 81.31445312 9.81709961 82.14453125 10.09716797 C93.80218744 14.05783569 104.9850454 18.45931798 115.83837891 24.28222656 C117.72181311 25.28337122 119.62104473 26.24633288 121.52734375 27.203125 C137.37295762 35.24963074 151.23489718 46.15448986 164.32421875 58.1171875 C166.47823009 60.06959186 168.67340226 61.95621109 170.890625 63.8359375 C174.89927678 67.34050732 178.2870956 71.19966331 181.703125 75.2734375 C182.41855469 76.0778125 183.13398437 76.8821875 183.87109375 77.7109375 C192.13836538 87.20548762 198.95182545 97.66758977 205.703125 108.2734375 C206.11868652 108.92602539 206.53424805 109.57861328 206.96240234 110.25097656 C234.89424368 154.8175047 243.11198929 213.79333817 232.50390625 264.96875 C222.88093754 306.05293478 203.93503454 342.77739242 174.703125 373.2734375 C174.20055176 373.80324219 173.69797852 374.33304688 173.18017578 374.87890625 C165.26658012 383.1846059 156.90400215 390.43380193 147.703125 397.2734375 C147.14544434 397.6972168 146.58776367 398.12099609 146.01318359 398.55761719 C136.45223958 405.81690412 126.34643066 411.74142497 115.703125 417.2734375 C114.97029297 417.65886719 114.23746094 418.04429687 113.48242188 418.44140625 C81.75807827 434.93693895 48.11038226 441.72518458 12.640625 441.6484375 C11.15169739 441.64712326 11.15169739 441.64712326 9.63269043 441.64578247 C-5.38837931 441.6020902 -19.66897771 440.96970596 -34.296875 437.2734375 C-35.81667969 436.903396 -35.81667969 436.903396 -37.3671875 436.52587891 C-74.31412598 427.37342106 -108.00026794 410.21877907 -136.0390625 384.34375 C-138.06162754 382.48914884 -140.13171484 380.72308589 -142.234375 378.9609375 C-157.68527347 365.39504864 -170.04699492 347.98051413 -180.296875 330.2734375 C-180.68327148 329.60908691 -181.06966797 328.94473633 -181.46777344 328.26025391 C-188.07563345 316.74773334 -192.85236606 304.75846716 -197.296875 292.2734375 C-197.78628643 290.94004106 -198.27585435 289.60670204 -198.765625 288.2734375 C-217.39559192 235.56426279 -211.49726127 176.05805747 -188.18847656 125.88769531 C-179.33933323 107.49580654 -167.96680309 90.41715471 -154.296875 75.2734375 C-153.575 74.43167969 -152.853125 73.58992188 -152.109375 72.72265625 C-136.46097274 54.68672203 -117.16498376 39.78759479 -96.296875 28.2734375 C-95.58772949 27.87318359 -94.87858398 27.47292969 -94.14794922 27.06054688 C-81.95394903 20.20389033 -69.4914456 14.89296211 -56.296875 10.2734375 C-55.19601562 9.87511719 -54.09515625 9.47679687 -52.9609375 9.06640625 C-36.17731651 3.41937023 -17.69761106 0.20673919 0 0 Z " fill="#1C5882" transform="translate(498.296875,237.7265625)"/>
<path d="M0 0 C1.15651566 0.00373123 1.15651566 0.00373123 2.33639526 0.00753784 C55.13736901 0.27033793 103.54226666 21.36448026 141 58.3125 C165.66249001 83.23304297 182.37876332 114.97947539 190.6875 148.875 C190.99179932 150.11467529 190.99179932 150.11467529 191.30224609 151.37939453 C194.30967558 164.24074083 195.40590731 176.95577477 195.375 190.125 C195.37567978 191.25912827 195.37567978 191.25912827 195.37637329 192.41616821 C195.34857142 208.31695797 195.2763761 226.83953262 188 241.3125 C184.86328125 243.40625 184.86328125 243.40625 181.3125 244.8125 C180.13300781 245.2971875 178.95351563 245.781875 177.73828125 246.28125 C176.83464844 246.6215625 175.93101562 246.961875 175 247.3125 C171.331351 243.94176914 168.69662262 240.16948127 165.9375 236.0625 C164.95454612 234.61580453 163.97146988 233.16919219 162.98828125 231.72265625 C162.49021973 230.9867627 161.9921582 230.25086914 161.47900391 229.49267578 C159.21138883 226.150021 156.91743215 222.82565869 154.625 219.5 C151.7362111 215.30182604 148.85302968 211.09992221 145.98046875 206.890625 C137.96572353 195.14806228 129.86287045 183.46874805 121.734375 171.8046875 C119.56512884 168.68761756 117.40675143 165.56322671 115.25 162.4375 C114.58097656 161.47457031 113.91195313 160.51164063 113.22265625 159.51953125 C111.98719156 157.73690118 110.75413628 155.9525699 109.53076172 154.16162109 C107.92424869 151.81054257 106.30648787 149.46750055 104.6875 147.125 C103.93098145 146.00859131 103.93098145 146.00859131 103.15917969 144.86962891 C102.67739258 144.17659668 102.19560547 143.48356445 101.69921875 142.76953125 C101.27471436 142.15053955 100.85020996 141.53154785 100.4128418 140.89379883 C97.88737508 138.06721373 95.44344728 137.38072266 91.75 136.8125 C86.57937688 137.50191642 83.87520741 139.98857733 80 143.3125 C78.515 144.488125 78.515 144.488125 77 145.6875 C76.34 146.22375 75.68 146.76 75 147.3125 C75.5610436 151.8957946 77.53463286 155.28122265 79.9375 159.125 C80.33791504 159.77662109 80.73833008 160.42824219 81.15087891 161.09960938 C81.99977653 162.47812169 82.85206734 163.85454949 83.70751953 165.22900391 C84.96300332 167.25286085 86.20019693 169.28684471 87.43359375 171.32421875 C92.43086201 179.52062122 97.78832137 187.33366318 103.5546875 195.0078125 C105.82444396 198.03593465 107.92995478 201.14484941 110 204.3125 C105.04032212 202.7755656 101.70685542 199.86186932 97.875 196.5 C97.21411377 195.92032471 96.55322754 195.34064941 95.87231445 194.7434082 C84.63780835 184.68389463 76.66041716 173.21325229 69 160.3125 C68.26670944 159.09569998 67.53236442 157.87953469 66.796875 156.6640625 C65.32580393 154.22838723 63.86286187 151.78809912 62.40625 149.34375 C60.66480933 146.42186968 58.91319564 143.50633368 57.15625 140.59375 C52.28743032 132.51683633 47.45689966 124.4224967 42.75 116.25 C38.15903547 108.2798473 33.49877237 100.3518411 28.8125 92.4375 C28.15926758 91.33269287 27.50603516 90.22788574 26.83300781 89.08959961 C24.89745385 85.82524153 22.94989616 82.56830771 21 79.3125 C20.65725037 78.73302612 20.31450073 78.15355225 19.96136475 77.55651855 C18.92266077 75.80161847 17.87439064 74.05274332 16.82421875 72.3046875 C16.21022217 71.27456543 15.59622559 70.24444336 14.96362305 69.18310547 C12.14926435 65.06881608 8.87629992 60.89012644 4 59.3125 C-0.45603694 58.62695586 -3.1599813 59.06721303 -6.78515625 61.62109375 C-12.05951324 65.74795293 -14.94039997 71.11549732 -18.1875 76.875 C-19.50378164 79.14015257 -20.82151227 81.4044637 -22.140625 83.66796875 C-22.79095703 84.79380371 -23.44128906 85.91963867 -24.11132812 87.07958984 C-26.79530211 91.67384831 -29.60920583 96.1812171 -32.4375 100.6875 C-37.35942752 108.58218968 -42.14169536 116.55342996 -46.875 124.5625 C-47.54402344 125.69284668 -48.21304688 126.82319336 -48.90234375 127.98779297 C-51.61823988 132.57935486 -54.33371661 137.17101466 -57.02783203 141.77539062 C-58.98986497 145.12578499 -60.96297911 148.46945444 -62.9375 151.8125 C-63.5154834 152.80797852 -64.0934668 153.80345703 -64.68896484 154.82910156 C-72.69865882 168.33761366 -83.06582393 180.32553842 -96 189.3125 C-96.66 188.9825 -97.32 188.6525 -98 188.3125 C-97.47792969 187.65507812 -96.95585937 186.99765625 -96.41796875 186.3203125 C-89.5312303 177.41941412 -83.70714966 168.00212376 -78 158.3125 C-77.46221924 157.414104 -77.46221924 157.414104 -76.91357422 156.49755859 C-76.01146536 154.98595317 -75.12973385 153.46223594 -74.25 151.9375 C-73.78078125 151.12539063 -73.3115625 150.31328125 -72.828125 149.4765625 C-71.8626681 147.37358546 -71.8626681 147.37358546 -72.0703125 145.2265625 C-74.09738488 141.05317819 -78.94989726 139.1753069 -83 137.3125 C-87.33599024 136.58983496 -89.11135741 136.80810314 -92.91796875 138.96875 C-96.27465677 141.52136446 -98.19654341 143.95645778 -100.5625 147.4375 C-101.4300491 148.69465995 -102.29858869 149.95113679 -103.16796875 151.20703125 C-103.62478027 151.87299316 -104.0815918 152.53895508 -104.55224609 153.22509766 C-107.10136429 156.90047043 -109.74482701 160.50743804 -112.375 164.125 C-117.69772102 171.47721394 -122.94620532 178.87941579 -128.171875 186.30078125 C-135.0994398 196.13670462 -142.13433848 205.89507915 -149.18554688 215.64257812 C-152.05825706 219.61576249 -154.92024948 223.5958721 -157.75952148 227.59301758 C-159.83049531 230.50611589 -161.91481393 233.40956583 -164 236.3125 C-164.57492187 237.11526367 -165.14984375 237.91802734 -165.7421875 238.74511719 C-167.63253918 241.37768683 -169.53385985 244.00202772 -171.4375 246.625 C-172.04134521 247.46861084 -172.64519043 248.31222168 -173.26733398 249.18139648 C-173.83782471 249.96329346 -174.40831543 250.74519043 -174.99609375 251.55078125 C-175.75684204 252.6032605 -175.75684204 252.6032605 -176.53295898 253.67700195 C-178 255.3125 -178 255.3125 -181 256.3125 C-183.8640926 247.25069883 -186.38111672 238.19821925 -188.25 228.875 C-188.41274414 228.07223633 -188.57548828 227.26947266 -188.74316406 226.44238281 C-193.53909805 201.66848179 -192.82584878 173.79445765 -187 149.3125 C-186.79101074 148.42111328 -186.58202148 147.52972656 -186.36669922 146.61132812 C-178.10755897 112.53541464 -160.44059599 82.27907725 -136 57.3125 C-135.25621094 56.5184375 -134.51242187 55.724375 -133.74609375 54.90625 C-127.42501397 48.29414445 -120.34243684 42.73457706 -113 37.3125 C-112.44135254 36.89887207 -111.88270508 36.48524414 -111.30712891 36.05908203 C-79.10572269 12.59603098 -39.80336028 -0.20558977 0 0 Z " fill="#FDFEFD" transform="translate(510,266.6875)"/>
<path d="M0 0 C0.97907318 -0.01243744 1.95814636 -0.02487488 2.96688843 -0.03768921 C24.44249307 -0.25775702 44.77662627 -0.03861185 65.703125 5.2734375 C67.04166349 5.58725313 68.38020473 5.90105705 69.71875 6.21484375 C73.11389722 7.09521332 76.38636951 8.13238556 79.703125 9.2734375 C80.50878906 9.54526855 81.31445312 9.81709961 82.14453125 10.09716797 C93.80218744 14.05783569 104.9850454 18.45931798 115.83837891 24.28222656 C117.72181311 25.28337122 119.62104473 26.24633288 121.52734375 27.203125 C137.37295762 35.24963074 151.23489718 46.15448986 164.32421875 58.1171875 C166.47823009 60.06959186 168.67340226 61.95621109 170.890625 63.8359375 C174.89927678 67.34050732 178.2870956 71.19966331 181.703125 75.2734375 C182.41855469 76.0778125 183.13398437 76.8821875 183.87109375 77.7109375 C192.13836538 87.20548762 198.95182545 97.66758977 205.703125 108.2734375 C206.11868652 108.92602539 206.53424805 109.57861328 206.96240234 110.25097656 C234.89424368 154.8175047 243.11198929 213.79333817 232.50390625 264.96875 C222.88093754 306.05293478 203.93503454 342.77739242 174.703125 373.2734375 C174.20055176 373.80324219 173.69797852 374.33304688 173.18017578 374.87890625 C165.26658012 383.1846059 156.90400215 390.43380193 147.703125 397.2734375 C147.14544434 397.6972168 146.58776367 398.12099609 146.01318359 398.55761719 C136.45223958 405.81690412 126.34643066 411.74142497 115.703125 417.2734375 C114.97029297 417.65886719 114.23746094 418.04429687 113.48242188 418.44140625 C81.75807827 434.93693895 48.11038226 441.72518458 12.640625 441.6484375 C11.15169739 441.64712326 11.15169739 441.64712326 9.63269043 441.64578247 C-5.38837931 441.6020902 -19.66897771 440.96970596 -34.296875 437.2734375 C-35.81667969 436.903396 -35.81667969 436.903396 -37.3671875 436.52587891 C-74.31412598 427.37342106 -108.00026794 410.21877907 -136.0390625 384.34375 C-138.06162754 382.48914884 -140.13171484 380.72308589 -142.234375 378.9609375 C-157.68527347 365.39504864 -170.04699492 347.98051413 -180.296875 330.2734375 C-180.68327148 329.60908691 -181.06966797 328.94473633 -181.46777344 328.26025391 C-188.07563345 316.74773334 -192.85236606 304.75846716 -197.296875 292.2734375 C-197.78628643 290.94004106 -198.27585435 289.60670204 -198.765625 288.2734375 C-217.39559192 235.56426279 -211.49726127 176.05805747 -188.18847656 125.88769531 C-179.33933323 107.49580654 -167.96680309 90.41715471 -154.296875 75.2734375 C-153.575 74.43167969 -152.853125 73.58992188 -152.109375 72.72265625 C-136.46097274 54.68672203 -117.16498376 39.78759479 -96.296875 28.2734375 C-95.58772949 27.87318359 -94.87858398 27.47292969 -94.14794922 27.06054688 C-81.95394903 20.20389033 -69.4914456 14.89296211 -56.296875 10.2734375 C-55.19601562 9.87511719 -54.09515625 9.47679687 -52.9609375 9.06640625 C-36.17731651 3.41937023 -17.69761106 0.20673919 0 0 Z M-28.296875 33.2734375 C-29.23837402 33.49837891 -30.17987305 33.72332031 -31.14990234 33.95507812 C-64.51708861 42.08822475 -94.02628015 58.03371471 -119.296875 81.2734375 C-119.8429541 81.77423828 -120.3890332 82.27503906 -120.95166016 82.79101562 C-149.17423604 109.01264353 -168.148369 144.83136826 -176.296875 182.2734375 C-176.46058594 182.9962793 -176.62429688 183.71912109 -176.79296875 184.46386719 C-179.3946538 196.44559442 -179.58126217 208.44172334 -179.609375 220.6484375 C-179.61305084 221.41598358 -179.61672668 222.18352966 -179.62051392 222.97433472 C-179.64535544 232.91320243 -179.02507545 242.45756551 -177.296875 252.2734375 C-177.06206421 253.6356543 -177.06206421 253.6356543 -176.82250977 255.02539062 C-176.38334386 257.46870722 -175.91289856 259.90254864 -175.421875 262.3359375 C-175.25187988 263.1808374 -175.08188477 264.0257373 -174.90673828 264.89624023 C-172.54494228 277.14625615 -172.54494228 277.14625615 -167.296875 288.2734375 C-166.8328125 289.913125 -166.8328125 289.913125 -166.359375 291.5859375 C-165.34665939 295.10065639 -164.02137216 298.05960189 -162.296875 301.2734375 C-161.636875 301.2734375 -160.976875 301.2734375 -160.296875 301.2734375 C-160.2040625 302.12808594 -160.11125 302.98273438 -160.015625 303.86328125 C-153.37152326 335.38665524 -115.76434499 365.8236444 -90.51611328 382.44580078 C-69.88108068 395.72453777 -47.34239369 404.55584558 -23.296875 409.2734375 C-22.54728516 409.42441895 -21.79769531 409.57540039 -21.02539062 409.73095703 C3.70271135 414.51854068 29.17364742 413.53040887 53.703125 408.2734375 C55.31758744 407.94601789 56.93216581 407.61916927 58.546875 407.29296875 C66.2016837 405.70349892 73.77799065 403.79933046 81.328125 401.7734375 C82.0504834 401.58402588 82.7728418 401.39461426 83.51708984 401.19946289 C88.58926834 399.79314509 93.07542898 397.76576414 97.703125 395.2734375 C98.52941406 394.84160156 99.35570312 394.40976562 100.20703125 393.96484375 C108.60182194 389.82049539 108.60182194 389.82049539 114.703125 383.2734375 C116.36235778 382.31570314 118.02441269 381.36243854 119.70214844 380.4375 C123.09054769 378.46630824 126.18927454 376.11481579 129.328125 373.7734375 C129.97007812 373.30035156 130.61203125 372.82726562 131.2734375 372.33984375 C133.09152163 370.99490857 134.89879969 369.63675142 136.703125 368.2734375 C137.68023438 367.54125 138.65734375 366.8090625 139.6640625 366.0546875 C140.67339844 365.17296875 140.67339844 365.17296875 141.703125 364.2734375 C141.703125 363.6134375 141.703125 362.9534375 141.703125 362.2734375 C142.363125 362.2734375 143.023125 362.2734375 143.703125 362.2734375 C143.703125 361.6134375 143.703125 360.9534375 143.703125 360.2734375 C145.023125 359.6134375 146.343125 358.9534375 147.703125 358.2734375 C147.703125 357.6134375 147.703125 356.9534375 147.703125 356.2734375 C148.363125 356.2734375 149.023125 356.2734375 149.703125 356.2734375 C149.703125 355.6134375 149.703125 354.9534375 149.703125 354.2734375 C151.0953125 353.933125 151.0953125 353.933125 152.515625 353.5859375 C156.40742912 351.98342992 156.63266053 350.8375942 158.703125 347.2734375 C160.43914152 345.0409125 162.28882348 342.91032225 164.140625 340.7734375 C172.32167625 331.41314841 172.32167625 331.41314841 177.703125 320.2734375 C178.363125 320.2734375 179.023125 320.2734375 179.703125 320.2734375 C179.991875 319.4896875 180.280625 318.7059375 180.578125 317.8984375 C181.703125 315.2734375 181.703125 315.2734375 183.703125 313.2734375 C184.44746202 311.58269967 185.18763129 309.88978146 185.89111328 308.18164062 C187.15281581 305.21667763 188.66069199 302.38442158 190.140625 299.5234375 C194.78435321 290.35564591 198.02982716 281.42330995 199.703125 271.2734375 C197.723125 272.2634375 197.723125 272.2634375 195.703125 273.2734375 C196.48300781 272.77457031 197.26289062 272.27570313 198.06640625 271.76171875 C201.36593051 268.64794548 202.04427025 265.75511527 202.890625 261.4609375 C203.04208984 260.79384766 203.19355469 260.12675781 203.34960938 259.43945312 C206.18740453 246.31314105 207.08019321 233.33707643 207.015625 219.9609375 C207.01338928 218.80915009 207.01338928 218.80915009 207.0111084 217.63409424 C206.97139275 206.23955544 206.33364479 195.3851159 203.703125 184.2734375 C203.4185246 182.89391613 203.13735099 181.51368395 202.859375 180.1328125 C197.60403704 154.95086348 186.96511996 130.98446003 171.703125 110.2734375 C171.06987305 109.40912109 171.06987305 109.40912109 170.42382812 108.52734375 C141.89035117 69.99642299 102.49669606 44.91473231 56.078125 33.5234375 C55.28043701 33.32468018 54.48274902 33.12592285 53.66088867 32.92114258 C40.11969331 29.75279349 26.50087627 28.86057998 12.640625 28.8984375 C11.50217636 28.89925323 11.50217636 28.89925323 10.34072876 28.90008545 C-2.87492451 28.94332756 -15.42335059 30.13688464 -28.296875 33.2734375 Z " fill="#5F5F5F" transform="translate(498.296875,237.7265625)"/>
<path d="M0 0 C31.8117563 22.76394864 70.99746166 33.76909116 109.97802734 27.78442383 C127.11803115 24.74778496 142.3551866 18.44517526 157.40917969 9.86083984 C158.06917969 9.53083984 158.72917969 9.20083984 159.40917969 8.86083984 C157.90439575 12.20053888 155.96550775 14.83512604 153.65917969 17.67333984 C152.95148438 18.54732422 152.24378906 19.42130859 151.51464844 20.32177734 C149.69870442 22.51169128 147.84935164 24.66152188 145.97167969 26.79833984 C143.28142008 29.63367728 143.28142008 29.63367728 142.40917969 32.86083984 C139.34667969 34.04833984 139.34667969 34.04833984 136.40917969 34.86083984 C136.40917969 35.52083984 136.40917969 36.18083984 136.40917969 36.86083984 C135.74917969 36.86083984 135.08917969 36.86083984 134.40917969 36.86083984 C133.74917969 38.18083984 133.08917969 39.50083984 132.40917969 40.86083984 C131.74917969 40.86083984 131.08917969 40.86083984 130.40917969 40.86083984 C130.40917969 41.52083984 130.40917969 42.18083984 130.40917969 42.86083984 C129.74917969 42.86083984 129.08917969 42.86083984 128.40917969 42.86083984 C128.40917969 43.52083984 128.40917969 44.18083984 128.40917969 44.86083984 C123.08688931 49.86428333 116.89180283 54.02758121 110.97167969 58.29833984 C110.36888184 58.73533203 109.76608398 59.17232422 109.14501953 59.62255859 C106.5767619 61.45299426 104.42026659 62.85714421 101.40917969 63.86083984 C100.72855469 64.78896484 100.72855469 64.78896484 100.03417969 65.73583984 C98.05628798 68.32231362 96.27759584 69.30191802 93.40917969 70.86083984 C92.735 71.24240234 92.06082031 71.62396484 91.36621094 72.01708984 C89.05736377 73.3205354 86.74646689 74.60884837 84.40917969 75.86083984 C83.86197266 76.16787842 83.31476563 76.47491699 82.75097656 76.79125977 C76.92686049 79.91443449 70.907 81.62915372 64.53417969 83.29833984 C63.41027832 83.59691895 62.28637695 83.89549805 61.12841797 84.203125 C41.3303867 89.33615158 21.69283365 93.09068436 1.22167969 93.11083984 C0.15746292 93.11235046 0.15746292 93.11235046 -0.92825317 93.1138916 C-13.02784806 93.10231353 -24.71257997 92.23956385 -36.59082031 89.86083984 C-37.67991699 89.65201172 -37.67991699 89.65201172 -38.79101562 89.43896484 C-82.90266589 80.78883642 -125.54544088 54.93845225 -152.59082031 18.86083984 C-152.97737793 18.34537598 -153.36393555 17.82991211 -153.76220703 17.29882812 C-160.3106249 8.50612901 -166.16218439 -0.615648 -171.59082031 -10.13916016 C-172.00332031 -10.85845703 -172.41582031 -11.57775391 -172.84082031 -12.31884766 C-173.59082031 -14.13916016 -173.59082031 -14.13916016 -173.59082031 -18.13916016 C-174.25082031 -18.13916016 -174.91082031 -18.13916016 -175.59082031 -18.13916016 C-176.84747009 -21.04516277 -177.59082031 -22.935206 -177.59082031 -26.13916016 C-167.70794462 -30.08179673 -157.92421157 -33.41691592 -147.52490234 -35.70117188 C-145.71334591 -36.11141326 -143.91490468 -36.57840464 -142.11816406 -37.04931641 C-92.8715037 -48.57056992 -39.7290875 -28.4493435 0 0 Z " fill="#C68D4E" transform="translate(511.5908203125,557.13916015625)"/>
<path d="M0 0 C4.71041683 -0.38452382 8.23281455 -0.1014232 12.26953125 2.52734375 C19.59196981 8.75885467 23.95423786 18.99355144 28.5612793 27.24780273 C31.4082322 32.33006403 34.417302 37.2134924 37.68969727 42.0324707 C39.25784987 44.38718318 40.62333587 46.80799875 41.9375 49.3125 C45.1441339 55.29821661 48.54910811 61.15269554 52 67 C52.4738916 67.804375 52.9477832 68.60875 53.43603516 69.4375 C56.76809337 75.09264906 60.10811225 80.74302065 63.45458984 86.38964844 C64.80261895 88.66660377 66.14611217 90.94615121 67.48828125 93.2265625 C84.34027 123.68609006 84.34027 123.68609006 111 144 C110.40574219 143.25878906 109.81148437 142.51757812 109.19921875 141.75390625 C102.17614215 132.87925213 95.95778546 123.61640649 90 114 C89.41621582 113.06188477 88.83243164 112.12376953 88.23095703 111.15722656 C86.38708362 108.17727824 84.56522476 105.18497205 82.75 102.1875 C82.16436279 101.23818604 81.57872559 100.28887207 80.9753418 99.31079102 C80.44207275 98.41803467 79.90880371 97.52527832 79.359375 96.60546875 C78.87952148 95.81293701 78.39966797 95.02040527 77.90527344 94.20385742 C77 92 77 92 77.20043945 89.85742188 C78.50264229 86.83233511 80.88340479 85.32189871 83.4375 83.3125 C84.42621094 82.52488281 85.41492188 81.73726563 86.43359375 80.92578125 C90.51495621 77.86320637 92.862929 77.57191075 98 78 C103.35184476 80.87014255 106.05020365 84.41448792 109.25 89.375 C110.21753702 90.82893292 111.18630893 92.28204475 112.15625 93.734375 C112.63578125 94.45818359 113.1153125 95.18199219 113.609375 95.92773438 C115.58925334 98.87808679 117.66503102 101.74774281 119.75 104.625 C126.0513115 113.37277814 132.06534477 122.31868914 138.12158203 131.23681641 C140.98931602 135.45530006 143.8687197 139.66576135 146.75 143.875 C147.28343018 144.65447998 147.81686035 145.43395996 148.36645508 146.23706055 C152.17432058 151.79915736 155.99160409 157.35473207 159.81274414 162.90771484 C165.55849682 171.26038556 171.27838555 179.6307849 177 188 C167.10035792 196.36319474 148.08922853 193.75247215 136 193 C129.51761133 192.25892999 123.26568612 190.78872625 117 189 C116.01797607 188.72712158 116.01797607 188.72712158 115.01611328 188.44873047 C98.34039559 183.69939779 83.36164943 175.55953638 69 166 C68.05253906 165.36964844 67.10507812 164.73929688 66.12890625 164.08984375 C50.29952039 153.24881349 35.61829495 140.30853208 24 125 C22.96359375 123.71029297 22.96359375 123.71029297 21.90625 122.39453125 C17 116.27145337 17 116.27145337 17 114 C16.34 114 15.68 114 15 114 C13.82592979 111.73272667 12.66060261 109.46165376 11.5 107.1875 C11.16613281 106.54490234 10.83226562 105.90230469 10.48828125 105.24023438 C8.99760916 102.30452301 8 100.33873483 8 97 C7.34 97 6.68 97 6 97 C6 96.34 6 95.68 6 95 C5.34 95 4.68 95 4 95 C-7.79883269 69.52745162 -12.30836518 39.17290443 -3 12 C-1.95325768 9.21669501 -0.88240963 6.48492497 0.36328125 3.78515625 C0.57339844 3.19605469 0.78351563 2.60695313 1 2 C0.67 1.34 0.34 0.68 0 0 Z " fill="#65A187" transform="translate(507,325)"/>
<path d="M0 0 C1.04969971 0.52553467 2.09939941 1.05106934 3.1809082 1.5925293 C8.23383185 4.1343596 13.22759504 6.73673429 18.14697266 9.52734375 C27.6568422 14.88017227 37.73070981 18.18248254 48.1875 21.1875 C49.43273437 21.55101562 50.67796875 21.91453125 51.9609375 22.2890625 C61.31807352 24.49924695 70.75272983 24.46621603 80.3125 24.5 C80.99164459 24.50385712 81.67078918 24.50771423 82.37051392 24.51168823 C95.62532538 24.54871005 108.04670073 23.73265938 120.1875 18.1875 C121.44773451 17.66049904 122.70959006 17.13736519 123.97265625 16.6171875 C132.2452985 13.17181052 139.81425318 9.34387361 147.1875 4.1875 C147.92226563 3.67574219 148.65703125 3.16398438 149.4140625 2.63671875 C151.01685417 1.50327046 152.60447006 0.34838862 154.1875 -0.8125 C152.41368676 11.91002256 147.49979761 23.81408916 140.703125 34.63671875 C139.23862379 37.1014592 138.22432293 39.5220196 137.1875 42.1875 C134.06241982 46.92900096 134.06241982 46.92900096 130.4375 48 C129.32375 48.0928125 129.32375 48.0928125 128.1875 48.1875 C128.1875 48.8475 128.1875 49.5075 128.1875 50.1875 C126.00377952 50.82558003 123.81519197 51.4469999 121.625 52.0625 C120.40683594 52.41054688 119.18867187 52.75859375 117.93359375 53.1171875 C106.5591625 55.90540243 95.06137273 56.53880162 83.40844727 56.50317383 C81.2542074 56.50000619 79.10133836 56.52363 76.94726562 56.54882812 C63.80428009 56.60916161 51.42283386 54.40060865 38.8125 50.6875 C38.05775391 50.47029297 37.30300781 50.25308594 36.52539062 50.02929688 C35.05803971 49.60590105 33.59150663 49.17965609 32.12597656 48.75 C30.4824882 48.27309859 28.83175571 47.82127297 27.1796875 47.375 C21.89711934 45.91773982 17.24323371 43.8689204 12.4140625 41.2734375 C10.3288 40.25641474 8.45207375 39.65282337 6.1875 39.1875 C6.1875 38.5275 6.1875 37.8675 6.1875 37.1875 C5.52363281 37.11402344 4.85976563 37.04054688 4.17578125 36.96484375 C0.12019577 35.90986138 -3.07000503 33.92381989 -6.625 31.75 C-7.31787109 31.34201172 -8.01074219 30.93402344 -8.72460938 30.51367188 C-10.45905453 29.46616953 -12.14127914 28.33317971 -13.8125 27.1875 C-13.8125 26.5275 -13.8125 25.8675 -13.8125 25.1875 C-14.45445312 24.96964844 -15.09640625 24.75179687 -15.7578125 24.52734375 C-19.11996491 23.05264007 -22.08242044 21.24343808 -25.19238281 19.3034668 C-44.46045722 7.30711088 -63.81982403 -1.20540948 -85.8125 -6.8125 C-87.32577881 -7.21662109 -87.32577881 -7.21662109 -88.86962891 -7.62890625 C-99.36067207 -10.37652091 -109.06714567 -10.99911251 -119.91210938 -10.99780273 C-121.91280214 -10.99997321 -123.91345567 -11.01843966 -125.9140625 -11.03710938 C-138.06460457 -11.05504817 -149.90137317 -9.95571244 -161.625 -6.625 C-168.55473981 -4.6836199 -168.55473981 -4.6836199 -170.8125 -5.8125 C-168.8125 -8.8125 -168.8125 -8.8125 -165.8125 -9.8125 C-165.3484375 -10.31652344 -164.884375 -10.82054687 -164.40625 -11.33984375 C-162.34720026 -13.24244608 -161.07655993 -13.23219024 -158.3125 -13.375 C-154.80816274 -13.56773855 -153.88300563 -13.76549625 -150.8125 -15.8125 C-149.4925 -15.8125 -148.1725 -15.8125 -146.8125 -15.8125 C-146.8125 -16.4725 -146.8125 -17.1325 -146.8125 -17.8125 C-95.95172027 -29.20089198 -46.54966987 -23.5658417 0 0 Z " fill="#38A1A1" transform="translate(543.8125,509.8125)"/>
<path d="M0 0 C1.30195313 -0.00773437 2.60390625 -0.01546875 3.9453125 -0.0234375 C16.238701 0.00114928 27.63340277 1.77692878 39.4375 5.125 C40.32759766 5.36863281 41.21769531 5.61226563 42.13476562 5.86328125 C53.33113006 8.97472594 63.96638878 12.68665296 74.4375 17.75 C75.51008057 18.2653833 76.58266113 18.7807666 77.68774414 19.31176758 C87.16202792 23.96134742 96.04847816 29.34148172 104.80053711 35.2253418 C106.40732142 36.31326347 106.40732142 36.31326347 108.375 37.25 C108.375 37.91 108.375 38.57 108.375 39.25 C109.096875 39.518125 109.81875 39.78625 110.5625 40.0625 C114.24881134 41.61894257 117.48876043 43.69610027 120.875 45.8125 C123.31860101 47.21757058 125.73608429 48.26983131 128.375 49.25 C128.375 49.91 128.375 50.57 128.375 51.25 C129.09647217 51.36682129 129.81794434 51.48364258 130.5612793 51.60400391 C133.45986283 52.26948347 135.73399201 53.26968934 138.39453125 54.5859375 C144.46192813 57.41190404 150.5957251 59.20115533 157.0625 60.875 C158.11888672 61.16117188 159.17527344 61.44734375 160.26367188 61.7421875 C174.04164255 65.38759165 187.03697343 67.75284688 201.28442383 67.58618164 C203.44064681 67.56246539 205.59563106 67.56567286 207.75195312 67.57226562 C219.75990226 67.54839364 231.81532392 66.87992029 243.2265625 62.8359375 C245.68160401 62.16638072 247.84183784 62.15222883 250.375 62.25 C250.375 61.59 250.375 60.93 250.375 60.25 C252.355 59.59 254.335 58.93 256.375 58.25 C256.375 58.91 256.375 59.57 256.375 60.25 C255.715 60.25 255.055 60.25 254.375 60.25 C253.23224148 62.45389144 252.29920008 64.49489205 251.5625 66.875 C249.9824306 70.0351388 248.64298641 70.00377199 245.375 71.25 C243.73485554 72.14682776 242.09546493 73.04528893 240.46850586 73.96582031 C208.8299431 91.71458893 172.05408546 93.18738184 137.46728516 83.84619141 C120.33947683 78.96566539 103.84971874 70.69790625 89.61621094 60.02490234 C71.53229478 46.58673682 50.36626405 37.11245226 29.375 29.25 C27.75078125 28.63125 27.75078125 28.63125 26.09375 28 C-8.75809507 16.00796729 -47.97788218 18.91358257 -81.96875 31.89453125 C-85.625 33.25 -85.625 33.25 -87.625 33.25 C-87.955 33.91 -88.285 34.57 -88.625 35.25 C-90.05777854 32.38444292 -89.98494437 30.42225697 -89.625 27.25 C-87.73828125 25.1171875 -87.73828125 25.1171875 -84.9375 23.125 C-84.42002197 22.75665039 -83.90254395 22.38830078 -83.36938477 22.00878906 C-71.9559086 14.12670622 -58.79746403 5.73412572 -45.625 1.25 C-44.635 1.58 -43.645 1.91 -42.625 2.25 C-44.605 3.24 -44.605 3.24 -46.625 4.25 C-46.625 4.91 -46.625 5.57 -46.625 6.25 C-45.64402344 5.98445313 -44.66304688 5.71890625 -43.65234375 5.4453125 C-42.28918574 5.08807109 -40.92589705 4.73132805 -39.5625 4.375 C-38.92505859 4.20097656 -38.28761719 4.02695312 -37.63085938 3.84765625 C-25.22298008 0.6417927 -12.75948763 -0.07625192 0 0 Z " fill="#238889" transform="translate(421.625,497.75)"/>
<path d="M0 0 C46.66485969 -1.80444141 88.8116306 18.94437059 123.890625 48.4296875 C148.27129442 68.40651872 178.00019913 76.88738338 209 78 C206.11283411 79.58281805 203.52854838 80.43219844 200.296875 81.03515625 C199.39839844 81.20466797 198.49992188 81.37417969 197.57421875 81.54882812 C196.64222656 81.71833984 195.71023438 81.88785156 194.75 82.0625 C193.83347656 82.23587891 192.91695312 82.40925781 191.97265625 82.58789062 C181.48817438 84.53970929 171.48197102 85.23949505 160.8125 85.25 C159.74828323 85.25151062 159.74828323 85.25151062 158.66256714 85.25305176 C146.56297226 85.24147369 134.87824034 84.378724 123 82 C122.27393555 81.86078125 121.54787109 81.7215625 120.79980469 81.578125 C76.31129326 72.85409552 34.61494061 46.92789181 7 11 C6.32324219 10.15566406 5.64648438 9.31132813 4.94921875 8.44140625 C4.30597656 7.63574219 3.66273438 6.83007812 3 6 C2.4225 5.278125 1.845 4.55625 1.25 3.8125 C0 2 0 2 0 0 Z " fill="#FDFCFB" transform="translate(352,565)"/>
<path d="M0 0 C0.67144043 0.32758301 1.34288086 0.65516602 2.03466797 0.99267578 C10.47014881 5.14117126 17.97426706 9.87267484 25.37207031 15.71679688 C42.46199236 29.18779722 59.64193911 40.46512223 80.5 47.25 C81.24668945 47.49645264 81.99337891 47.74290527 82.76269531 47.99682617 C94.65674669 51.69995689 106.42810411 52.28410144 118.8125 52.125 C120.19856112 52.11493373 121.58462946 52.10581442 122.97070312 52.09765625 C126.31399273 52.07435806 129.65689731 52.04164862 133 52 C133 52.66 133 53.32 133 54 C136.18192285 53.21952836 139.34087198 52.36789231 142.5 51.5 C145.65912802 50.63210769 148.81807715 49.78047164 152 49 C151.8125 50.8125 151.8125 50.8125 151 53 C149.36935236 54.05771739 147.69719127 55.05273046 146 56 C145.41605469 56.63550781 144.83210937 57.27101563 144.23046875 57.92578125 C141.53206832 60.43515188 139.07289575 61.4136271 135.625 62.6875 C134.52414062 63.10386719 133.42328125 63.52023437 132.2890625 63.94921875 C129.18526206 64.94081295 126.21081688 65.49327816 123 66 C122.67 66.33 122.34 66.66 122 67 C120.00041636 67.04080783 117.99954746 67.04254356 116 67 C116 67.66 116 68.32 116 69 C113.69 69 111.38 69 109 69 C109.66 69.66 110.32 70.32 111 71 C91.91494847 77.36168384 62.99720869 65.61021695 45.99682617 57.16088867 C37.17466882 52.62944726 29.30395202 47.71812185 21.66357422 41.37158203 C-14.65555245 11.42722429 -54.85340858 -5.65162608 -102 -7 C-102 -8.32 -102 -9.64 -102 -11 C-66.6296604 -19.82206846 -32.80316072 -16.28937328 0 0 Z " fill="#C99351" transform="translate(453,572)"/>
<path d="M0 0 C0.8470752 0.24427734 1.69415039 0.48855469 2.56689453 0.74023438 C30.36397773 8.89523019 55.88013389 22.26913291 79.46435547 38.9597168 C112.35241257 62.2200909 150.62740214 76.86225063 191.54907227 69.97363281 C194.71019131 69.36587799 197.85374583 68.6799855 201 68 C203.32990647 67.62746446 205.66050612 67.30932974 208 67 C193.51834155 80.48292338 171.16894122 80.75705838 152.6640625 80.31640625 C122.225757 79.12333415 95.84714916 64.94674778 72.26953125 46.54296875 C61.71662042 38.31543665 51.21746647 31.51980054 39 26 C38.32066406 25.68933594 37.64132812 25.37867188 36.94140625 25.05859375 C5.53536535 10.86947508 -27.69190011 8.44483736 -61 17 C-62.46582301 14.62934797 -63.92270151 12.25391839 -65.375 9.875 C-65.7875 9.20984375 -66.2 8.5446875 -66.625 7.859375 C-68.97316963 3.99625721 -70.75646871 0.38652246 -72 -4 C-48.39558604 -8.65439149 -22.98646579 -6.8042684 0 0 Z " fill="#FDFAF5" transform="translate(410,545)"/>
<path d="M0 0 C4.71041683 -0.38452382 8.23281455 -0.1014232 12.26953125 2.52734375 C19.6645142 8.82059109 24.06627693 19.18766282 28.73706055 27.51147461 C31.88160956 33.11728759 31.88160956 33.11728759 35.36328125 38.515625 C37 41 37 41 37 43 C36.01 42.67 35.02 42.34 34 42 C33.96261719 43.31871094 33.92523437 44.63742187 33.88671875 45.99609375 C33.48766434 57.58602195 32.35222287 68.64796789 30 80 C29.8246875 80.9178125 29.649375 81.835625 29.46875 82.78125 C29 85 29 85 28 88 C27.34 88 26.68 88 26 88 C25.855625 88.94875 25.71125 89.8975 25.5625 90.875 C25 94 25 94 24 96 C23.34 96 22.68 96 22 96 C21.90203125 96.59167969 21.8040625 97.18335938 21.703125 97.79296875 C20.74230199 102.87042139 19.7014799 106.17513744 16 110 C15.67 109.01 15.34 108.02 15 107 C13.515 106.505 13.515 106.505 12 106 C12 105.34 12 104.68 12 104 C11.34 104 10.68 104 10 104 C8.5393715 101.35261084 8 100.10551666 8 97 C7.34 97 6.68 97 6 97 C6 96.34 6 95.68 6 95 C5.34 95 4.68 95 4 95 C-7.79883269 69.52745162 -12.30836518 39.17290443 -3 12 C-1.95325768 9.21669501 -0.88240963 6.48492497 0.36328125 3.78515625 C0.57339844 3.19605469 0.78351563 2.60695313 1 2 C0.67 1.34 0.34 0.68 0 0 Z " fill="#78B09A" transform="translate(507,325)"/>
<path d="M0 0 C31.8117563 22.76394864 70.99746166 33.76909116 109.97802734 27.78442383 C127.11803115 24.74778496 142.3551866 18.44517526 157.40917969 9.86083984 C158.06917969 9.53083984 158.72917969 9.20083984 159.40917969 8.86083984 C155.10025101 18.18967043 148.96584158 24.30567017 139.40917969 27.86083984 C138.68537109 28.13524902 137.9615625 28.4096582 137.21582031 28.69238281 C101.29509656 42.11606908 61.59965734 41.89205744 26.40917969 25.86083984 C16.65008698 21.19964923 7.13746019 16.27356374 -1.67626953 9.98217773 C-3.65247249 8.60814531 -3.65247249 8.60814531 -6.59082031 8.86083984 C-7.93559793 7.53904988 -9.26704456 6.20366273 -10.59082031 4.86083984 C-12.47125582 3.71577018 -14.39053746 2.63241658 -16.34082031 1.61083984 C-17.32566406 1.09005859 -18.31050781 0.56927734 -19.32519531 0.03271484 C-20.07285156 -0.35400391 -20.82050781 -0.74072266 -21.59082031 -1.13916016 C-21.92082031 -0.47916016 -22.25082031 0.18083984 -22.59082031 0.86083984 C-22.92082031 -0.78916016 -23.25082031 -2.43916016 -23.59082031 -4.13916016 C-24.58082031 -4.46916016 -25.57082031 -4.79916016 -26.59082031 -5.13916016 C-27.59422918 -6.13573963 -28.59393507 -7.13605507 -29.59082031 -8.13916016 C-48.07416703 -19.22056128 -70.25314414 -26.52064209 -91.59082031 -29.13916016 C-92.32034912 -29.22979736 -93.04987793 -29.32043457 -93.80151367 -29.41381836 C-121.01120395 -32.49671691 -146.44216569 -29.47030935 -171.62988281 -18.87353516 C-173.59082031 -18.13916016 -173.59082031 -18.13916016 -175.59082031 -18.13916016 C-176.84747009 -21.04516277 -177.59082031 -22.935206 -177.59082031 -26.13916016 C-167.70794462 -30.08179673 -157.92421157 -33.41691592 -147.52490234 -35.70117188 C-145.71334591 -36.11141326 -143.91490468 -36.57840464 -142.11816406 -37.04931641 C-92.8715037 -48.57056992 -39.7290875 -28.4493435 0 0 Z " fill="#F6F9F3" transform="translate(511.5908203125,557.13916015625)"/>
<path d="M0 0 C5.1975 -0.103125 10.395 -0.20625 15.75 -0.3125 C18.17037598 -0.38078003 18.17037598 -0.38078003 20.63964844 -0.45043945 C30.07224688 -0.5403566 39.22211597 0.04204806 46.76513672 6.51464844 C51.41398536 11.80615659 52.45894357 16.31514534 52.3125 23.1796875 C51.67391224 28.94294206 49.31605103 33.11883652 44.9375 36.875 C42.98492209 38.28750317 41.00517659 39.6632156 39 41 C39.52956299 41.7410498 39.52956299 41.7410498 40.06982422 42.49707031 C41.67445945 44.7459869 43.27476382 46.99795137 44.875 49.25 C45.70837891 50.41595703 45.70837891 50.41595703 46.55859375 51.60546875 C47.09355469 52.35957031 47.62851562 53.11367188 48.1796875 53.890625 C48.67194824 54.58188477 49.16420898 55.27314453 49.67138672 55.98535156 C50.9558321 57.93302581 52.00412271 59.89254184 53 62 C48.28890199 63.20779274 43.53615665 64.11150033 39 62 C36.37705216 59.14312989 34.50564354 55.90635908 32.5625 52.5625 C29.24345767 46.34408267 29.24345767 46.34408267 23.97363281 42.00195312 C19.36413233 40.94556507 15.86653285 41.49970223 11 42 C11 48.6 11 55.2 11 62 C7.37 62 3.74 62 0 62 C0 41.54 0 21.08 0 0 Z " fill="#213A57" transform="translate(655,723)"/>
<path d="M0 0 C11 0 11 0 14.34765625 2.82421875 C15.28822275 4.08619826 16.19215543 5.37610458 17.0625 6.6875 C17.5579834 7.36796387 18.0534668 8.04842773 18.56396484 8.74951172 C19.57969007 10.14617454 20.58178049 11.55285756 21.56982422 12.96923828 C23.22398646 15.31804701 24.9636874 17.5856853 26.73657227 19.84545898 C28.84493061 22.54773153 30.91799174 25.27737381 33 28 C36.3 32.29 39.6 36.58 43 41 C43.33 27.8 43.66 14.6 44 1 C47.63 1 51.26 1 55 1 C55 21.13 55 41.26 55 62 C45 62 45 62 41.96875 59.61328125 C41.11427598 58.53734492 40.29226461 57.43503357 39.5 56.3125 C39.04625 55.72525146 38.5925 55.13800293 38.125 54.53295898 C37.18435102 53.30897216 36.25724806 52.07445971 35.34375 50.83007812 C34.07940316 49.10814064 32.7840602 47.41756102 31.46875 45.734375 C28.95673757 42.50691599 26.47861289 39.25317941 24 36 C18.555 29.07 18.555 29.07 13 22 C12.67 35.53 12.34 49.06 12 63 C8.04 63 4.08 63 0 63 C0 42.21 0 21.42 0 0 Z " fill="#233C57" transform="translate(445,723)"/>
<path d="M0 0 C15.51 0 31.02 0 47 0 C47 3.63 47 7.26 47 11 C35.45 11 23.9 11 12 11 C12 15.95 12 20.9 12 26 C21.9 26 31.8 26 42 26 C42 29.3 42 32.6 42 36 C31.77 36 21.54 36 11 36 C11 41.28 11 46.56 11 52 C22.88 52 34.76 52 47 52 C47 55.3 47 58.6 47 62 C31.49 62 15.98 62 0 62 C0 41.54 0 21.08 0 0 Z " fill="#223C58" transform="translate(380,723)"/>
<path d="M0 0 C3.96 0 7.92 0 12 0 C12.12473576 5.76164081 12.21486943 11.5224748 12.2746582 17.28515625 C12.29961363 19.24037387 12.3335907 21.19550004 12.37719727 23.15039062 C12.89739893 47.09190717 12.89739893 47.09190717 5.29052734 56.00244141 C-1.34286301 62.45802538 -9.09531146 63.53910306 -17.99145508 63.48779297 C-25.2803665 63.2029566 -30.69247823 61.30752177 -35.8671875 56.1328125 C-41.64036162 49.03374193 -42.29876451 41.97395222 -42.1953125 33.12890625 C-42.1924826 32.206577 -42.18965271 31.28424774 -42.18673706 30.33396912 C-42.17560974 27.41000987 -42.15051912 24.48636549 -42.125 21.5625 C-42.11496057 19.57096799 -42.1058364 17.57943114 -42.09765625 15.58789062 C-42.07569483 10.7251405 -42.04121673 5.8626235 -42 1 C-38.37 1 -34.74 1 -31 1 C-30.98598145 2.6560022 -30.98598145 2.6560022 -30.97167969 4.34545898 C-30.93152862 8.4776915 -30.86570263 12.60919899 -30.79248047 16.7409668 C-30.7644155 18.52244691 -30.74312961 20.30404819 -30.72900391 22.08569336 C-30.99708424 37.14594157 -30.99708424 37.14594157 -24.15234375 50.0390625 C-21.2008441 51.35679192 -18.7868823 51.39736566 -15.5625 51.375 C-13.89380859 51.38660156 -13.89380859 51.38660156 -12.19140625 51.3984375 C-8.55255356 50.94413765 -6.80758607 50.35972071 -4 48 C-0.99674509 42.37458848 -0.53513423 37.65855638 -0.48828125 31.34765625 C-0.47033005 30.44752304 -0.45237885 29.54738983 -0.43388367 28.61997986 C-0.38004755 25.76753309 -0.34597112 22.91525107 -0.3125 20.0625 C-0.27930332 18.11911783 -0.2448115 16.17575733 -0.20898438 14.23242188 C-0.12433659 9.48840064 -0.05739864 4.744426 0 0 Z " fill="#1C3653" transform="translate(622,723)"/>
<path d="M0 0 C4.29 0 8.58 0 13 0 C19 15 25 30 31 45 C35.36879793 35.7966315 39.06689426 26.36584263 42.75 16.875 C43.63168843 14.60464027 44.51429834 12.33466481 45.40020752 10.06594849 C45.9469449 8.66578154 46.49126435 7.26466748 47.03289795 5.86251831 C48.88736626 1.11263374 48.88736626 1.11263374 50 0 C52.18639453 -0.07258946 54.37500389 -0.08373783 56.5625 -0.0625 C58.35880859 -0.04896484 58.35880859 -0.04896484 60.19140625 -0.03515625 C61.11824219 -0.02355469 62.04507813 -0.01195312 63 0 C61.09376575 4.82908567 59.08293823 9.61362456 57.078125 14.40234375 C56.69565613 15.31649551 56.31318726 16.23064728 55.91912842 17.17250061 C55.10904787 19.10833033 54.29876063 21.04407356 53.48828125 22.97973633 C52.2675028 25.89569275 51.04777229 28.81208593 49.828125 31.72851562 C45.59743683 41.83879717 41.34411258 51.93785794 37 62 C33.04 62 29.08 62 25 62 C19.98422117 50.34007327 14.98219889 38.67431788 10 27 C9.71227722 26.32598145 9.42455444 25.65196289 9.12811279 24.95751953 C7.42967018 20.97581885 5.74257864 16.98948019 4.0625 13 C3.64436035 12.01773438 3.2262207 11.03546875 2.79541016 10.0234375 C2.42077637 9.12882813 2.04614258 8.23421875 1.66015625 7.3125 C1.33668213 6.54550781 1.01320801 5.77851562 0.67993164 4.98828125 C0 3 0 3 0 0 Z " fill="#1F3855" transform="translate(303,723)"/>
<path d="M0 0 C16.83 0 33.66 0 51 0 C51 3.3 51 6.6 51 10 C44.4 10 37.8 10 31 10 C31 27.16 31 44.32 31 62 C27.37 62 23.74 62 20 62 C20 44.84 20 27.68 20 10 C13.4 10 6.8 10 0 10 C0 6.7 0 3.4 0 0 Z " fill="#1D3752" transform="translate(515,723)"/>
<path d="M0 0 C11 0 11 0 14.48046875 3.0625 C15.419235 4.34920059 16.3216433 5.66314822 17.1875 7 C17.66251953 7.66773438 18.13753906 8.33546875 18.62695312 9.0234375 C19.78399402 10.65965695 20.89677433 12.32702336 22 14 C21.01 14 20.02 14 19 14 C18.360625 14.639375 17.72125 15.27875 17.0625 15.9375 C15 18 15 18 11 19 C10.67 32.86 10.34 46.72 10 61 C6.7 61 3.4 61 0 61 C0 40.87 0 20.74 0 0 Z " fill="#1A3452" transform="translate(446,724)"/>
<path d="M0 0 C3.96 0 7.92 0 12 0 C12.12473576 5.76164081 12.21486943 11.5224748 12.2746582 17.28515625 C12.29961363 19.24037387 12.3335907 21.19550004 12.37719727 23.15039062 C12.86956337 45.81081631 12.86956337 45.81081631 7 54 C4.42638596 55.59585736 1.95218512 56.3673889 -1 57 C-2.86269756 53.06763849 -3.07542214 50.52036576 -2.08056641 46.39501953 C-0.96838832 41.23825846 -0.6578609 36.31738584 -0.5859375 31.0546875 C-0.56657135 30.15879913 -0.5472052 29.26291077 -0.5272522 28.33987427 C-0.46815235 25.51834202 -0.42135347 22.69676741 -0.375 19.875 C-0.33675595 17.94529611 -0.29770064 16.01560811 -0.2578125 14.0859375 C-0.16250945 9.39075631 -0.07822646 4.69549548 0 0 Z " fill="#243D59" transform="translate(622,723)"/>
<path d="M0 0 C5.0428125 -0.0928125 5.0428125 -0.0928125 10.1875 -0.1875 C11.76374146 -0.22846802 11.76374146 -0.22846802 13.37182617 -0.27026367 C22.10553644 -0.34814602 22.10553644 -0.34814602 26 3 C28.47631221 6.71446831 28.53805227 9.69558186 28 14 C26.74700175 17.03357471 25.88258425 18.49566614 23.03125 20.125 C18.57984767 21.40994088 14.29185708 21.20895197 9.6875 21.125 C4.8921875 21.063125 4.8921875 21.063125 0 21 C0 14.07 0 7.14 0 0 Z " fill="#FAFCFC" transform="translate(667,734)"/>
<path d="M0 0 C0.99 0.495 0.99 0.495 2 1 C2.495 2.485 2.495 2.485 3 4 C1.948125 4.309375 0.89625 4.61875 -0.1875 4.9375 C-4.60055903 6.76513051 -5.93135076 9.84357312 -7.859375 14.0390625 C-9 16 -9 16 -12 17 C-12.45375 17.61875 -12.9075 18.2375 -13.375 18.875 C-15.35289171 21.46147378 -17.13158385 22.44107818 -20 24 C-20.67417969 24.3815625 -21.34835937 24.763125 -22.04296875 25.15625 C-24.35181592 26.45969556 -26.6627128 27.74800853 -29 29 C-29.56605957 29.30848877 -30.13211914 29.61697754 -30.71533203 29.93481445 C-46.1161823 38.03122817 -61.91667921 40.03814022 -79 38 C-79 37.67 -79 37.34 -79 37 C-75.54210946 36.80364026 -72.08367803 36.61941748 -68.625 36.4375 C-67.14773438 36.35338867 -67.14773438 36.35338867 -65.640625 36.26757812 C-64.69960938 36.21923828 -63.75859375 36.17089844 -62.7890625 36.12109375 C-61.91975098 36.0739624 -61.05043945 36.02683105 -60.15478516 35.97827148 C-58 36 -58 36 -56 37 C-56 36.34 -56 35.68 -56 35 C-52.72639816 34.03279946 -49.47132662 33.10896607 -46.14453125 32.33984375 C-39.8715264 30.88488825 -34.66660972 29.04317929 -29 26 C-28.34 26 -27.68 26 -27 26 C-26.505 24.515 -26.505 24.515 -26 23 C-24.34051852 21.98812105 -22.67419438 20.9873454 -21 20 C-21 19.34 -21 18.68 -21 18 C-22.77111844 18.47811177 -24.54188483 18.9575278 -26.3125 19.4375 C-27.29863281 19.70433594 -28.28476562 19.97117187 -29.30078125 20.24609375 C-31.21517526 20.78079425 -33.11433615 21.37144538 -35 22 C-36.0209375 22.2475 -36.0209375 22.2475 -37.0625 22.5 C-39.06256771 22.94398007 -39.06256771 22.94398007 -41 24 C-40.5234375 22.1484375 -40.5234375 22.1484375 -39 20 C-36.17497927 19.03057183 -33.5211313 18.2865782 -30.625 17.625 C-22.75958899 15.6590406 -16.07085194 13.03454493 -9 9 C-10.98 9 -12.96 9 -15 9 C-14.67 8.01 -14.34 7.02 -14 6 C-12.73542969 5.85304688 -12.73542969 5.85304688 -11.4453125 5.703125 C-9.80175781 5.47882812 -9.80175781 5.47882812 -8.125 5.25 C-7.03445313 5.11078125 -5.94390625 4.9715625 -4.8203125 4.828125 C-1.87221871 4.29064565 -1.87221871 4.29064565 -0.6171875 1.921875 C-0.41351562 1.28765625 -0.20984375 0.6534375 0 0 Z " fill="#A3673C" transform="translate(625,604)"/>
<path d="M0 0 C0.99 0.33 1.98 0.66 3 1 C3 1.99 3 2.98 3 4 C4.98 3.34 6.96 2.68 9 2 C2.98254404 15.86631156 -8.70280173 27.45562518 -21 36 C-21.66 35.67 -22.32 35.34 -23 35 C-22.47792969 34.34257812 -21.95585937 33.68515625 -21.41796875 33.0078125 C-14.53243437 24.10847034 -8.74586453 14.66304952 -3 5 C-2.0003155 3.33314408 -1.00048714 1.66637428 0 0 Z " fill="#ECF5F8" transform="translate(435,420)"/>
<path d="M0 0 C10.56 0 21.12 0 32 0 C32 0.33 32 0.66 32 1 C22.1 1.33 12.2 1.66 2 2 C2.185625 5.444375 2.37125 8.88875 2.5625 12.4375 C3.3006567 28.31004008 2.64883998 44.13505317 2 60 C2.5775 59.814375 3.155 59.62875 3.75 59.4375 C6 59 6 59 10 60 C9.67 54.06 9.34 48.12 9 42 C9.99 41.505 9.99 41.505 11 41 C11 47.6 11 54.2 11 61 C7.37 61 3.74 61 0 61 C0 40.87 0 20.74 0 0 Z " fill="#193248" transform="translate(655,724)"/>
<path d="M0 0 C0.99 0.33 1.98 0.66 3 1 C2.01 2.485 2.01 2.485 1 4 C0.64080332 5.66128463 0.31088368 7.32900023 0 9 C-0.63920943 11.00894394 -1.31039038 13.00779443 -2 15 C-3.94377772 20.6223248 -5.63118335 26.20885262 -7 32 C-7.33 30.68 -7.66 29.36 -8 28 C-9.32 27.67 -10.64 27.34 -12 27 C-13.65 28.98 -15.3 30.96 -17 33 C-18 30 -18 30 -17.10717773 27.98217773 C-16.63739502 27.22364502 -16.1676123 26.4651123 -15.68359375 25.68359375 C-15.16603516 24.83603516 -14.64847656 23.98847656 -14.11523438 23.11523438 C-13.56158203 22.23158203 -13.00792969 21.34792969 -12.4375 20.4375 C-11.91091797 19.58091797 -11.38433594 18.72433594 -10.84179688 17.84179688 C-9.77691573 16.10957283 -8.7083815 14.37958929 -7.63623047 12.65185547 C-5.04943667 8.45941229 -2.52398232 4.23046441 0 0 Z " fill="#1F446C" transform="translate(493,340)"/>
<path d="M0 0 C1.65 0 3.3 0 5 0 C5 0.66 5 1.32 5 2 C6.0209375 2.12375 6.0209375 2.12375 7.0625 2.25 C9.72037198 2.92860561 11.26695493 3.6624154 13.5625 5.0625 C16.92311422 7.32734204 16.92311422 7.32734204 21 7 C21.33 7.99 21.66 8.98 22 10 C23.83574993 10.9454294 23.83574993 10.9454294 26 11.5625 C28.1875 12.25390625 28.1875 12.25390625 30 13 C30.33 13.66 30.66 14.32 31 15 C32.64363134 15.72159424 34.31050386 16.39351421 36 17 C36 17.66 36 18.32 36 19 C36.515625 19.2475 37.03125 19.495 37.5625 19.75 C39.63445071 20.81253882 41.61979821 21.94448454 43.625 23.125 C46.64790887 25.16188098 46.64790887 25.16188098 49 25 C49 25.99 49 26.98 49 28 C50.32 27.67 51.64 27.34 53 27 C53.54398437 27.74636719 54.08796875 28.49273438 54.6484375 29.26171875 C57.10950209 32.12750991 59.42373975 33.83220559 62.625 35.8125 C64.06746094 36.71935547 64.06746094 36.71935547 65.5390625 37.64453125 C67.82371758 39.16081746 67.82371758 39.16081746 70 39 C70 39.66 70 40.32 70 41 C71.98 41.33 73.96 41.66 76 42 C76 42.99 76 43.98 76 45 C71.25238768 43.61045493 67.19702775 41.56801658 63 39 C62.34700928 38.60482178 61.69401855 38.20964355 61.02124023 37.80249023 C56.56548112 35.06564965 52.28815435 32.14016171 48.0625 29.0625 C32.89975942 18.05800365 16.69657379 9.46412437 0 1 C0 0.67 0 0.34 0 0 Z " fill="#E4C58B" transform="translate(443,557)"/>
<path d="M0 0 C0 0.33 0 0.66 0 1 C-0.89380371 1.00410889 -1.78760742 1.00821777 -2.70849609 1.01245117 C-28.37165662 1.21774332 -52.12630598 3.39563238 -76.34375 12.64453125 C-80 14 -80 14 -82 14 C-82.33 14.66 -82.66 15.32 -83 16 C-84.455276 13.08944799 -84.45067148 11.21908202 -84 8 C-81 5.625 -81 5.625 -78 4 C-78.66 6.64 -79.32 9.28 -80 12 C-79.34 12 -78.68 12 -78 12 C-78 11.34 -78 10.68 -78 10 C-74.23572553 7.90873641 -70.64337545 7.2805763 -66.4375 6.5625 C-64.02612405 6.11110749 -64.02612405 6.11110749 -62.11254883 5.02954102 C-43.91985449 -3.83658542 -19.44718138 -1.01794742 0 0 Z " fill="#397C77" transform="translate(416,517)"/>
<path d="M0 0 C-2.75927344 2.75927344 -5.21154052 2.51783243 -9 3 C-9.33 3.33 -9.66 3.66 -10 4 C-11.670625 4.2165625 -11.670625 4.2165625 -13.375 4.4375 C-17.08510547 4.75300217 -17.08510547 4.75300217 -20 7 C-16.12732932 8.27758208 -12.27273265 8.07063948 -8.25 8 C-2.74108078 7.94520966 2.55947745 8.09324624 8 9 C8 9.33 8 9.66 8 10 C7.19481934 10.02505615 6.38963867 10.0501123 5.56005859 10.07592773 C2.49959897 10.17251158 -0.56076662 10.2716261 -3.62109375 10.37231445 C-5.56764815 10.43563439 -7.5142922 10.49617965 -9.4609375 10.55664062 C-17.99619519 10.83969764 -26.48688358 11.32834561 -35 12 C-35 11.01 -35 10.02 -35 9 C-28.37735758 5.93953646 -21.75032265 3.48128517 -14.6875 1.6875 C-13.70233398 1.43081543 -13.70233398 1.43081543 -12.69726562 1.16894531 C-8.39216858 0.12416646 -4.4194679 -0.15436693 0 0 Z " fill="#A06635" transform="translate(373,529)"/>
<path d="M0 0 C-15.57692308 13 -15.57692308 13 -22 13 C-22 12.34 -22 11.68 -22 11 C-20.02 10.34 -18.04 9.68 -16 9 C-16 8.34 -16 7.68 -16 7 C-15.01 7 -14.02 7 -13 7 C-13 6.34 -13 5.68 -13 5 C-14.73830078 5.73089844 -14.73830078 5.73089844 -16.51171875 6.4765625 C-22.79837971 8.56678187 -29.15219329 8.45084792 -35.70385742 8.39111328 C-37.82599852 8.37489685 -39.94627275 8.39109779 -42.06835938 8.41015625 C-43.42708751 8.40817593 -44.78581448 8.40433664 -46.14453125 8.3984375 C-47.36503174 8.39505371 -48.58553223 8.39166992 -49.84301758 8.38818359 C-53.19505925 7.97601545 -54.57116147 7.27979531 -57 5 C-56.09870361 5.01571045 -55.19740723 5.0314209 -54.26879883 5.04760742 C-50.85988378 5.09935359 -47.45139808 5.13664485 -44.04223633 5.16479492 C-42.57895234 5.17969533 -41.11571147 5.20002282 -39.65258789 5.22631836 C-28.35656187 5.42395038 -18.0690991 4.49365451 -7.4375 0.25 C-3.95946311 -1.01474069 -3.29074643 -1.06571219 0 0 Z " fill="#18425A" transform="translate(694,512)"/>
<path d="M0 0 C0.99 0.33 1.98 0.66 3 1 C0.375 6.75 0.375 6.75 -3 9 C-3 9.99 -3 10.98 -3 12 C-3.33 12.33 -3.66 12.66 -4 13 C-3.34 13.66 -2.68 14.32 -2 15 C-8.435 19.95 -8.435 19.95 -15 25 C-15.66 24.34 -16.32 23.68 -17 23 C-15.10852481 20.28859945 -13.21103089 17.58146374 -11.3125 14.875 C-10.78205078 14.11445312 -10.25160156 13.35390625 -9.70507812 12.5703125 C-6.64071948 8.20877136 -3.47832583 4.03976247 0 0 Z M-7 13 C-6.67 13.66 -6.34 14.32 -6 15 C-5.67 14.34 -5.34 13.68 -5 13 C-5.66 13 -6.32 13 -7 13 Z " fill="#1D3655" transform="translate(347,501)"/>
<path d="M0 0 C0.33 0 0.66 0 1 0 C1.25015041 3.92597168 0.67722383 6.26841917 -1.25 9.6875 C-1.87648438 10.83798828 -1.87648438 10.83798828 -2.515625 12.01171875 C-4.1737496 14.23273301 -5.55209194 14.8114496 -8 16 C-8.33 16.99 -8.66 17.98 -9 19 C-9.66 19 -10.32 19 -11 19 C-10.67 19.99 -10.34 20.98 -10 22 C-11.47931337 23.47931337 -12.98325403 24.93409133 -14.5 26.375 C-16.67376947 28.65745794 -17.80966536 30.1615097 -19 33 C-19.66666667 34.33333333 -20.33333333 35.66666667 -21 37 C-21.99 37 -22.98 37 -24 37 C-23.57921753 31.76025638 -20.76526336 28.65742279 -17.625 24.6875 C-12.63811542 18.23486293 -7.92901096 11.65335447 -3.39111328 4.87768555 C-2.28354932 3.23616917 -1.14507871 1.61557071 0 0 Z " fill="#275072" transform="translate(400,426)"/>
<path d="M0 0 C0.99 0.495 0.99 0.495 2 1 C-2.42113094 4.52749809 -6.75575643 7.62184495 -11.89746094 10.00415039 C-13.83425183 10.9214948 -15.71587271 11.90755033 -17.609375 12.91015625 C-32.49652844 20.33998675 -47.68970535 21.94591368 -64 20 C-64 19.67 -64 19.34 -64 19 C-60.54210946 18.80364026 -57.08367803 18.61941748 -53.625 18.4375 C-52.64015625 18.38142578 -51.6553125 18.32535156 -50.640625 18.26757812 C-49.69960938 18.21923828 -48.75859375 18.17089844 -47.7890625 18.12109375 C-46.48509521 18.05039673 -46.48509521 18.05039673 -45.15478516 17.97827148 C-43 18 -43 18 -41 19 C-41 18.34 -41 17.68 -41 17 C-37.72639816 16.03279946 -34.47132662 15.10896607 -31.14453125 14.33984375 C-24.8715264 12.88488825 -19.66660972 11.04317929 -14 8 C-13.34 8 -12.68 8 -12 8 C-11.67 7.01 -11.34 6.02 -11 5 C-9.0187415 4.27954236 -7.01495907 3.61998741 -5 3 C-3.63875 2.1646875 -3.63875 2.1646875 -2.25 1.3125 C-1.13625 0.6628125 -1.13625 0.6628125 0 0 Z " fill="#725E4D" transform="translate(610,622)"/>
<path d="M0 0 C2.39616083 0.28913879 4.79189671 0.58130298 7.1875 0.875 C7.84169922 0.95363281 8.49589844 1.03226563 9.16992188 1.11328125 C12.4331329 1.51538308 15.67413124 1.94270739 18.91333008 2.51220703 C27.43916978 3.98739262 35.67196116 4.23863379 44.3125 4.125 C45.65038379 4.11493218 46.98827507 4.10581316 48.32617188 4.09765625 C51.55097962 4.07437244 54.77538654 4.0416741 58 4 C58 4.66 58 5.32 58 6 C40.92885257 11.69038248 16.73729231 6.19814585 0 1 C0 0.67 0 0.34 0 0 Z " fill="#AA7655" transform="translate(539,610)"/>
<path d="M0 0 C0 3 0 3 -1.4375 4.5 C-1.953125 4.995 -2.46875 5.49 -3 6 C-3.33 6.99 -3.66 7.98 -4 9 C-7.0625 10.1875 -7.0625 10.1875 -10 11 C-10 11.66 -10 12.32 -10 13 C-10.66 13 -11.32 13 -12 13 C-12.66 14.32 -13.32 15.64 -14 17 C-14.66 17 -15.32 17 -16 17 C-16 17.66 -16 18.32 -16 19 C-16.66 18.67 -17.32 18.34 -18 18 C-17.525625 17.38125 -17.05125 16.7625 -16.5625 16.125 C-14.97582559 14.09294454 -14.97582559 14.09294454 -14 12 C-13.34 12 -12.68 12 -12 12 C-12 11.01 -12 10.02 -12 9 C-15.3 9.66 -18.6 10.32 -22 11 C-22.33 10.34 -22.66 9.68 -23 9 C-15.41 6.03 -7.82 3.06 0 0 Z " fill="#AB6B42" transform="translate(658,581)"/>
<path d="M0 0 C3.05471839 2.9047099 5.54501954 5.95145302 8 9.375 C9.03640625 10.81939453 9.03640625 10.81939453 10.09375 12.29296875 C12.11575222 15.16437764 14.08899058 18.05386047 16 21 C10.76283777 19.4441052 7.21401855 16.08811193 3.1875 12.5625 C2.14819336 11.68368164 2.14819336 11.68368164 1.08789062 10.78710938 C0.43369141 10.21927734 -0.22050781 9.65144531 -0.89453125 9.06640625 C-1.49112549 8.55021729 -2.08771973 8.03402832 -2.70239258 7.50219727 C-4 6 -4 6 -4 3 C-3.67 3.66 -3.34 4.32 -3 5 C-1.68 4.67 -0.36 4.34 1 4 C0.67 2.68 0.34 1.36 0 0 Z " fill="#EAF6F0" transform="translate(604,450)"/>
<path d="M0 0 C4.23555908 0.47061768 6.13982445 0.9110104 9 4 C11.28631762 5.4315232 13.63181961 6.70420318 16 8 C16 8.66 16 9.32 16 10 C17.65 9.67 19.3 9.34 21 9 C21.4125 9.928125 21.825 10.85625 22.25 11.8125 C23.99519474 14.99124757 25.07016963 16.04677976 28 18 C28.66 18.70125 29.32 19.4025 30 20.125 C32.14895689 22.13964708 33.21796351 22.37179821 36 23 C37.75 24.4375 37.75 24.4375 39 26 C39 26.66 39 27.32 39 28 C39.99 28 40.98 28 42 28 C42 28.66 42 29.32 42 30 C38.02712266 28.60663475 35.07945112 26.75117736 31.75 24.1875 C30.7084375 23.39214844 29.666875 22.59679687 28.59375 21.77734375 C27.39522466 20.85235063 26.19735392 19.92650896 25 19 C22.82729677 17.32012201 20.65376418 15.6413785 18.47753906 13.96606445 C17.02866763 12.84987448 15.58254473 11.73010454 14.13964844 10.60620117 C10.05212338 7.45245582 5.90239997 4.6054267 1.45996094 1.97167969 C0.97817383 1.65102539 0.49638672 1.33037109 0 1 C0 0.67 0 0.34 0 0 Z " fill="#E0BF82" transform="translate(448,593)"/>
<path d="M0 0 C0.5775 0.226875 1.155 0.45375 1.75 0.6875 C1.43546875 1.39390625 1.1209375 2.1003125 0.796875 2.828125 C-3.38807091 12.86191097 -5.34678092 23.02309362 -7.25 33.6875 C-7.58 33.6875 -7.91 33.6875 -8.25 33.6875 C-8.47503507 27.69906688 -8.18307979 22.31614365 -6.6875 16.5 C-6.17178649 14.67423164 -6.17178649 14.67423164 -6.25 12.6875 C-5.59 12.6875 -4.93 12.6875 -4.25 12.6875 C-3.92 9.7175 -3.59 6.7475 -3.25 3.6875 C-5.89 6.6575 -8.53 9.6275 -11.25 12.6875 C-11.58 12.0275 -11.91 11.3675 -12.25 10.6875 C-11.34066991 9.41140677 -10.42217147 8.14184447 -9.5 6.875 C-8.98953125 6.16730469 -8.4790625 5.45960938 -7.953125 4.73046875 C-3.59348819 -0.49909558 -3.59348819 -0.49909558 0 0 Z " fill="#193D55" transform="translate(507.25,326.3125)"/>
<path d="M0 0 C-0.99 0.495 -0.99 0.495 -2 1 C-2 1.99 -2 2.98 -2 4 C-0.35 3.67 1.3 3.34 3 3 C3 3.66 3 4.32 3 5 C5.64 5 8.28 5 11 5 C11 5.33 11 5.66 11 6 C2.75 6 -5.5 6 -14 6 C-14 4.68 -14 3.36 -14 2 C-9.126739 0.4087311 -5.19209404 -0.21192221 0 0 Z " fill="#AC723B" transform="translate(365,559)"/>
<path d="M0 0 C0.74900574 0.0028299 1.49801147 0.00565979 2.26971436 0.00857544 C4.65393276 0.0197399 7.03777079 0.04483719 9.421875 0.0703125 C11.04166123 0.08034715 12.66145336 0.08947215 14.28125 0.09765625 C18.24493746 0.11966695 22.20834181 0.15417075 26.171875 0.1953125 C26.171875 0.8553125 26.171875 1.5153125 26.171875 2.1953125 C26.88214844 2.18371094 27.59242188 2.17210937 28.32421875 2.16015625 C29.24332031 2.15113281 30.16242188 2.14210938 31.109375 2.1328125 C32.48416016 2.11541016 32.48416016 2.11541016 33.88671875 2.09765625 C36.171875 2.1953125 36.171875 2.1953125 37.171875 3.1953125 C38.51934584 3.42606332 39.87565065 3.60684313 41.234375 3.7578125 C42.53375 3.9021875 43.833125 4.0465625 45.171875 4.1953125 C45.171875 4.8553125 45.171875 5.5153125 45.171875 6.1953125 C37.1947023 5.39759523 29.31124159 4.18243434 21.43774414 2.67016602 C17.91787665 2.15838144 14.5797021 2.08245854 11.0234375 2.09765625 C10.36604584 2.0990712 9.70865417 2.10048615 9.03134155 2.10194397 C6.95313769 2.10749488 4.87504573 2.12003785 2.796875 2.1328125 C1.37890782 2.13783386 -0.03906107 2.14239565 -1.45703125 2.14648438 C-4.91409822 2.15744813 -8.37110067 2.17467829 -11.828125 2.1953125 C-8.06917964 -0.26245947 -4.32858954 -0.06179565 0 0 Z " fill="#F9EFD8" transform="translate(379.828125,554.8046875)"/>
<path d="M0 0 C14.85 0 29.7 0 45 0 C45 2.97 45 5.94 45 9 C40.05 9 35.1 9 30 9 C30 8.67 30 8.34 30 8 C34.62 8 39.24 8 44 8 C44 5.69 44 3.38 44 1 C38.3581721 1.11819525 32.71652232 1.24244003 27.07495117 1.37231445 C25.15539175 1.4156494 23.23579415 1.45732552 21.31616211 1.49731445 C18.55831386 1.55505178 15.80065759 1.61873635 13.04296875 1.68359375 C12.18350143 1.70030624 11.32403412 1.71701874 10.43852234 1.73423767 C9.63791885 1.75418289 8.83731537 1.77412811 8.01245117 1.79467773 C7.3085173 1.81022202 6.60458344 1.8257663 5.87931824 1.84178162 C3.77300917 1.94481604 3.77300917 1.94481604 1 3 C0.67 3.66 0.34 4.32 0 5 C0 3.35 0 1.7 0 0 Z " fill="#142D46" transform="translate(381,724)"/>
<path d="M0 0 C0.66 0 1.32 0 2 0 C2 0.99 2 1.98 2 3 C3.32 2.67 4.64 2.34 6 2 C6.81597656 3.11955078 6.81597656 3.11955078 7.6484375 4.26171875 C10.10950209 7.12750991 12.42373975 8.83220559 15.625 10.8125 C16.58664062 11.41707031 17.54828125 12.02164063 18.5390625 12.64453125 C20.82371758 14.16081746 20.82371758 14.16081746 23 14 C23 14.66 23 15.32 23 16 C24.98 16.33 26.96 16.66 29 17 C29 17.99 29 18.98 29 20 C24.03599196 18.56425614 19.98922851 16.43063724 15.625 13.75 C14.63971313 13.14937744 14.63971313 13.14937744 13.63452148 12.53662109 C2.59448982 5.73540461 2.59448982 5.73540461 0 3 C0 2.01 0 1.02 0 0 Z " fill="#D3AE74" transform="translate(490,582)"/>
<path d="M0 0 C1.98 0 3.96 0 6 0 C5.02404877 0.57008537 5.02404877 0.57008537 4.02838135 1.15168762 C1.76898053 2.83922765 1.76898053 2.83922765 1.51898193 5.52470398 C1.52786438 6.53064102 1.53674683 7.53657806 1.54589844 8.57299805 C1.54620056 9.71395432 1.54650269 10.85491058 1.54681396 12.03044128 C1.56745911 13.26176285 1.58810425 14.49308441 1.609375 15.76171875 C1.61503479 17.02264847 1.62069458 18.28357819 1.62652588 19.5827179 C1.64513944 22.93195268 1.68106434 26.28009717 1.7253418 29.62902832 C1.76629143 33.04751163 1.78453612 36.46610764 1.8046875 39.88476562 C1.84883789 46.59014549 1.91581358 53.29500979 2 60 C1.01 60.495 1.01 60.495 0 61 C0 40.87 0 20.74 0 0 Z " fill="#142C42" transform="translate(446,724)"/>
<path d="M0 0 C1.44098611 0.76429661 2.87766054 1.53672555 4.3125 2.3125 C5.51326172 2.95638672 5.51326172 2.95638672 6.73828125 3.61328125 C8.83787272 4.90059554 10.35447721 6.18406708 12 8 C6.93055704 9.7988346 2.73067049 8.0109779 -2 6 C-2.99 5.34 -3.98 4.68 -5 4 C-4.34 3.34 -3.68 2.68 -3 2 C-2.01 2 -1.02 2 0 2 C0 1.34 0 0.68 0 0 Z " fill="#276986" transform="translate(567,485)"/>
<path d="M0 0 C5.40976108 0.59343961 9.79553007 2.45140664 14.6875 4.6875 C15.47753418 5.04328125 16.26756836 5.3990625 17.08154297 5.765625 C23.22078854 8.56382719 29.1651654 11.60705653 35 15 C31.17456525 16.27514492 29.66576992 15.52740413 26 14 C25 13 24 12 23 11 C19.70971319 9.41578783 16.71352703 8.13960311 13.125 7.4375 C12.42375 7.293125 11.7225 7.14875 11 7 C10.67 6.34 10.34 5.68 10 5 C8.0085944 4.61866701 6.00720923 4.28674418 4 4 C3.34 3.67 2.68 3.34 2 3 C2 2.34 2 1.68 2 1 C1.34 0.67 0.68 0.34 0 0 Z " fill="#DEBC81" transform="translate(450,535)"/>
<path d="M0 0 C10.23 0 20.46 0 31 0 C30.67 0.99 30.34 1.98 30 3 C11 3 11 3 9 2 C7.62657169 1.9310528 6.24997898 1.91532292 4.875 1.9375 C2.956875 1.9684375 2.956875 1.9684375 1 2 C0.67 1.34 0.34 0.68 0 0 Z " fill="#A36842" transform="translate(582,595)"/>
<path d="M0 0 C-2.59923719 1.98570826 -5.20519293 3.96240325 -7.8125 5.9375 C-8.91948242 6.78344727 -8.91948242 6.78344727 -10.04882812 7.64648438 C-10.76103516 8.18466797 -11.47324219 8.72285156 -12.20703125 9.27734375 C-12.8616333 9.77484131 -13.51623535 10.27233887 -14.19067383 10.78491211 C-16 12 -16 12 -19 13 C-18.35330586 11.65686601 -17.68096422 10.32608822 -17 9 C-16.40832031 7.77990234 -16.40832031 7.77990234 -15.8046875 6.53515625 C-13.53173623 3.3422009 -11.56042128 2.54247346 -7.9375 1.125 C-6.87402344 0.69445312 -5.81054688 0.26390625 -4.71484375 -0.1796875 C-2 -1 -2 -1 0 0 Z " fill="#F0E5DC" transform="translate(635,606)"/>
<path d="M0 0 C9.9 0 19.8 0 30 0 C29.67 0.66 29.34 1.32 29 2 C16.625 2.495 16.625 2.495 4 3 C4 2.34 4 1.68 4 1 C2.68 0.67 1.36 0.34 0 0 Z " fill="#B3865D" transform="translate(554,625)"/>
<path d="M0 0 C-2.60060504 1.34070318 -5.20504916 2.67273354 -7.8125 4 C-8.55048828 4.3815625 -9.28847656 4.763125 -10.04882812 5.15625 C-10.76103516 5.5171875 -11.47324219 5.878125 -12.20703125 6.25 C-13.18893433 6.75273438 -13.18893433 6.75273438 -14.19067383 7.265625 C-16 8 -16 8 -19 8 C-19 7.34 -19 6.68 -19 6 C-15.535 5.505 -15.535 5.505 -12 5 C-12 4.34 -12 3.68 -12 3 C-12.99 3.33 -13.98 3.66 -15 4 C-16.56118428 4.06740865 -18.1250252 4.08514456 -19.6875 4.0625 C-20.89986328 4.04896484 -20.89986328 4.04896484 -22.13671875 4.03515625 C-23.05904297 4.01775391 -23.05904297 4.01775391 -24 4 C-24 3.67 -24 3.34 -24 3 C-22.80761719 2.79503906 -21.61523438 2.59007812 -20.38671875 2.37890625 C-18.82029147 2.10689193 -17.25388636 1.83474985 -15.6875 1.5625 C-14.90181641 1.42779297 -14.11613281 1.29308594 -13.30664062 1.15429688 C-12.54931641 1.02216797 -11.79199219 0.89003906 -11.01171875 0.75390625 C-10.31522217 0.63345947 -9.61872559 0.5130127 -8.90112305 0.38891602 C-2.78103715 -0.8630805 -2.78103715 -0.8630805 0 0 Z " fill="#F6E4D4" transform="translate(618,613)"/>
<path d="M0 0 C0.33 0.66 0.66 1.32 1 2 C-2.39893036 5.39893036 -4.59999807 6.66544056 -9.125 8.12109375 C-11.35267006 8.96788846 -11.35267006 8.96788846 -13 12 C-14.65821773 12.37309899 -16.32577014 12.70700977 -18 13 C-18.66 13.66 -19.32 14.32 -20 15 C-22.625 15.625 -22.625 15.625 -25 16 C-21.37945933 12.98512599 -17.64918584 10.44701087 -13.625 8 C-12.76998901 7.47889648 -12.76998901 7.47889648 -11.89770508 6.94726562 C-7.96963469 4.5616664 -4.01277054 2.23968588 0 0 Z " fill="#247378" transform="translate(363,505)"/>
<path d="M0 0 C4.12801053 1.59312954 8.13929748 3.39516731 12.125 5.3125 C12.74503906 5.59544922 13.36507813 5.87839844 14.00390625 6.16992188 C18.05109581 8.13259122 20.07902345 9.9266884 22 14 C21.01 14.495 21.01 14.495 20 15 C19.45859375 14.40703125 18.9171875 13.8140625 18.359375 13.203125 C15.80929029 10.82192007 13.33469502 9.36579263 10.25 7.75 C9.26515625 7.22921875 8.2803125 6.7084375 7.265625 6.171875 C6.51796875 5.78515625 5.7703125 5.3984375 5 5 C4.67 5.66 4.34 6.32 4 7 C3.67 5.35 3.34 3.7 3 2 C2.01 1.67 1.02 1.34 0 1 C0 0.67 0 0.34 0 0 Z " fill="#F2DCB6" transform="translate(485,551)"/>
<path d="M0 0 C21.38962606 2.49457177 21.38962606 2.49457177 26 4 C26.33 4.66 26.66 5.32 27 6 C17.53980718 5.64766507 9.02139123 3.64972557 0 1 C0 0.67 0 0.34 0 0 Z " fill="#B6855D" transform="translate(539,610)"/>
<path d="M0 0 C-0.45057102 2.10266478 -0.94641243 3.89639737 -1.9375 5.8125 C-3.15371073 8.15599065 -3.15371073 8.15599065 -4 11.5 C-4.79053064 14.26685723 -5.60609856 16.51089029 -7 19 C-8.57156655 15.8568669 -7.11705576 13.634536 -6.0625 10.375 C-5.68222656 9.18648437 -5.30195312 7.99796875 -4.91015625 6.7734375 C-4.60980469 5.85820313 -4.30945313 4.94296875 -4 4 C-4.33 3.67 -4.66 3.34 -5 3 C-5.99 3.495 -5.99 3.495 -7 4 C-7.66 3.34 -8.32 2.68 -9 2 C-3.375 -1.125 -3.375 -1.125 0 0 Z " fill="#4B6A6E" transform="translate(701,508)"/>
<path d="M0 0 C0.66 0.33 1.32 0.66 2 1 C0.60812281 4.36370321 -0.79431396 6.21906331 -4 8 C-7.25 8.1875 -7.25 8.1875 -10 8 C-9.02079402 5.55198504 -8.42031559 4.25218936 -6.125 2.875 C-5.073125 2.441875 -5.073125 2.441875 -4 2 C-3.29875 1.608125 -2.5975 1.21625 -1.875 0.8125 C-1.25625 0.544375 -0.6375 0.27625 0 0 Z " fill="#1A324F" transform="translate(701,754)"/>
<path d="M0 0 C0.66 0.66 1.32 1.32 2 2 C0.46163292 2.65365399 -1.08088766 3.29753603 -2.625 3.9375 C-3.48351562 4.29714844 -4.34203125 4.65679688 -5.2265625 5.02734375 C-11.38585544 7.18743381 -16.96972606 7.00688503 -23.375 6.5625 C-24.20644531 6.51029297 -25.03789063 6.45808594 -25.89453125 6.40429688 C-27.93008108 6.27561269 -29.96510441 6.13864593 -32 6 C-32 5.67 -32 5.34 -32 5 C-28.54210946 4.80364026 -25.08367803 4.61941748 -21.625 4.4375 C-20.64015625 4.38142578 -19.6553125 4.32535156 -18.640625 4.26757812 C-17.69960938 4.21923828 -16.75859375 4.17089844 -15.7890625 4.12109375 C-14.48509521 4.05039673 -14.48509521 4.05039673 -13.15478516 3.97827148 C-11 4 -11 4 -9 5 C-9 4.34 -9 3.68 -9 3 C-7.329375 2.5359375 -7.329375 2.5359375 -5.625 2.0625 C-2.2054845 1.17673517 -2.2054845 1.17673517 0 0 Z " fill="#A06A3D" transform="translate(578,636)"/>
<path d="M0 0 C1.06798426 2.74159373 1.02884475 3.91055596 0.109375 6.76171875 C-0.33921875 7.72722656 -0.7878125 8.69273437 -1.25 9.6875 C-1.68828125 10.66074219 -2.1265625 11.63398437 -2.578125 12.63671875 C-4 15 -4 15 -7 16 C-7.2165625 17.1446875 -7.2165625 17.1446875 -7.4375 18.3125 C-8 21 -8 21 -9 24 C-9.99 24 -10.98 24 -12 24 C-8 16 -4 8 0 0 Z " fill="#4C6E6C" transform="translate(690,532)"/>
<path d="M0 0 C0.66 0.33 1.32 0.66 2 1 C1.67 1.99 1.34 2.98 1 4 C-0.6635479 4.67441131 -2.33066942 5.3400321 -4 6 C-6.39628155 7.64619349 -6.39628155 7.64619349 -8 10 C-8.33448259 13.167832 -8.33448259 13.167832 -8 16 C-8.99 15.67 -9.98 15.34 -11 15 C-11.33 13.35 -11.66 11.7 -12 10 C-8.04 6.7 -4.08 3.4 0 0 Z " fill="#86AE9C" transform="translate(596,404)"/>
<path d="M0 0 C0.99 0.99 1.98 1.98 3 3 C2.67 3.33 2.34 3.66 2 4 C1.83989519 6.73701178 1.74053172 9.4516759 1.68359375 12.19140625 C1.66281265 13.01124496 1.64203156 13.83108368 1.62062073 14.67576599 C1.55503506 17.30458901 1.49619874 19.93351504 1.4375 22.5625 C1.39432333 24.34050561 1.35070933 26.11850065 1.30664062 27.89648438 C1.19934457 32.26421634 1.09810296 36.63205227 1 41 C0.67 41 0.34 41 0 41 C0 27.47 0 13.94 0 0 Z " fill="#E9F4FA" transform="translate(457,744)"/>
<path d="M0 0 C-2.97735113 1.98490075 -5.07527818 2.68330394 -8.5 3.5625 C-11.37321572 4.30783687 -14.1830113 5.06100377 -17 6 C-18.0209375 6.2475 -18.0209375 6.2475 -19.0625 6.5 C-21.06256771 6.94398007 -21.06256771 6.94398007 -23 8 C-21.53547608 4.27155624 -21.53547608 4.27155624 -19.16821289 3.07104492 C-18.4436792 2.87615479 -17.71914551 2.68126465 -16.97265625 2.48046875 C-15.78446289 2.1546582 -15.78446289 2.1546582 -14.57226562 1.82226562 C-13.32993164 1.50805664 -13.32993164 1.50805664 -12.0625 1.1875 C-11.23814453 0.95869141 -10.41378906 0.72988281 -9.56445312 0.49414062 C-3.41675732 -1.13891911 -3.41675732 -1.13891911 0 0 Z " fill="#AE7A4D" transform="translate(607,620)"/>
<path d="M0 0 C1.65 0 3.3 0 5 0 C5 0.66 5 1.32 5 2 C6.0209375 2.12375 6.0209375 2.12375 7.0625 2.25 C9.72037198 2.92860561 11.26695493 3.6624154 13.5625 5.0625 C16.92311422 7.32734204 16.92311422 7.32734204 21 7 C21.33 8.32 21.66 9.64 22 11 C16.90117545 9.4719611 12.34334341 7.28963144 7.625 4.875 C6.88894531 4.50246094 6.15289062 4.12992188 5.39453125 3.74609375 C3.59449642 2.8343878 1.79698598 1.91770068 0 1 C0 0.67 0 0.34 0 0 Z " fill="#DDB779" transform="translate(443,557)"/>
<path d="M0 0 C6.43082887 3.51054909 12.73852342 7.19605494 19 11 C18.34 11.66 17.68 12.32 17 13 C13.88626628 11.50079488 10.87771795 9.91847864 8 8 C8 7.34 8 6.68 8 6 C7.01 6 6.02 6 5 6 C5 5.34 5 4.68 5 4 C4.01 4.33 3.02 4.66 2 5 C2 4.01 2 3.02 2 2 C1.34 2 0.68 2 0 2 C0 1.34 0 0.68 0 0 Z " fill="#D7B076" transform="translate(507,565)"/>
<path d="M0 0 C4.85178258 0.59409583 9.31526015 1.6268866 14 3 C16.38972408 3.50044546 18.78095938 3.98214822 21.1796875 4.4375 C21.78039062 4.623125 22.38109375 4.80875 23 5 C23.33 5.66 23.66 6.32 24 7 C15.51622606 5.97493351 7.90726045 4.26431995 0 1 C0 0.67 0 0.34 0 0 Z " fill="#F6E6D2" transform="translate(528,617)"/>
<path d="M0 0 C4.455 0.99 4.455 0.99 9 2 C9 2.66 9 3.32 9 4 C9.99 4 10.98 4 12 4 C12 4.66 12 5.32 12 6 C12.99 6 13.98 6 15 6 C15.33 6.99 15.66 7.98 16 9 C10.59811177 7.4763905 5.685004 5.07730789 1 2 C0.67 1.34 0.34 0.68 0 0 Z " fill="#368785" transform="translate(479,537)"/>
<path d="M0 0 C0.5775 0.226875 1.155 0.45375 1.75 0.6875 C-0.25 2.6875 -0.25 2.6875 -2.140625 3.5546875 C-4.70846997 4.93371536 -6.13255725 6.58593364 -8 8.8125 C-8.61359375 9.53695313 -9.2271875 10.26140625 -9.859375 11.0078125 C-10.31828125 11.56210937 -10.7771875 12.11640625 -11.25 12.6875 C-11.58 12.0275 -11.91 11.3675 -12.25 10.6875 C-11.34066991 9.41140677 -10.42217147 8.14184447 -9.5 6.875 C-8.98953125 6.16730469 -8.4790625 5.45960938 -7.953125 4.73046875 C-3.59348819 -0.49909558 -3.59348819 -0.49909558 0 0 Z " fill="#243D5C" transform="translate(507.25,326.3125)"/>
<path d="M0 0 C2.31 0 4.62 0 7 0 C6.01 0.495 6.01 0.495 5 1 C4.6550855 2.33038449 4.32483418 3.66457061 4 5 C3.03112419 7.01526169 2.0358679 9.01833966 1 11 C0.34 11 -0.32 11 -1 11 C-0.835 9.906875 -0.67 8.81375 -0.5 7.6875 C0.06718184 4.12474127 0.06718184 4.12474127 0 1 C0 0.67 0 0.34 0 0 Z " fill="#8EB9AF" transform="translate(507,325)"/>
<path d="M0 0 C2.31 0 4.62 0 7 0 C4.36271459 3.22334883 1.28107369 4.25743292 -2.5625 5.6875 C-4.29693359 6.34298828 -4.29693359 6.34298828 -6.06640625 7.01171875 C-9 8 -9 8 -11 8 C-11 7.34 -11 6.68 -11 6 C-9.35 6 -7.7 6 -6 6 C-6 5.34 -6 4.68 -6 4 C-4.35 3.67 -2.7 3.34 -1 3 C-0.67 2.01 -0.34 1.02 0 0 Z " fill="#AA7245" transform="translate(591,629)"/>
<path d="M0 0 C2 1 2 1 3 2 C4.97712807 2.09900199 6.95790038 2.12970773 8.9375 2.125 C10.01902344 2.12757813 11.10054688 2.13015625 12.21484375 2.1328125 C14.95659663 2.19007789 14.95659663 2.19007789 17 1 C17 1.66 17 2.32 17 3 C19.64 3 22.28 3 25 3 C25 3.33 25 3.66 25 4 C16.75 4 8.5 4 0 4 C0 2.68 0 1.36 0 0 Z " fill="#A97A4A" transform="translate(351,561)"/>
<path d="M0 0 C0 0.33 0 0.66 0 1 C-0.886875 1.268125 -1.77375 1.53625 -2.6875 1.8125 C-5.80707281 2.93083742 -8.3080828 4.077202 -11 6 C-11.33 6.99 -11.66 7.98 -12 9 C-13.32 8.67 -14.64 8.34 -16 8 C-10.95092029 1.54839815 -8.52095867 -0.32772918 0 0 Z " fill="#355B7A" transform="translate(427,403)"/>
<path d="M0 0 C0.99 0.33 1.98 0.66 3 1 C2.01 2.485 2.01 2.485 1 4 C0.64080332 5.66128463 0.31088368 7.32900023 0 9 C-1.66666667 14.66666667 -1.66666667 14.66666667 -4 17 C-3.91227545 15.10333474 -3.80408699 13.20761007 -3.6875 11.3125 C-3.62949219 10.25675781 -3.57148438 9.20101563 -3.51171875 8.11328125 C-2.96217936 4.76990036 -1.91325982 2.76473738 0 0 Z " fill="#1A3861" transform="translate(493,340)"/>
<path d="M0 0 C0.99 0.33 1.98 0.66 3 1 C3 2.32 3 3.64 3 5 C-0.33333333 6.66666667 -3.66666667 8.33333333 -7 10 C-6.02223933 8.51990357 -5.0427506 7.04094856 -4.0625 5.5625 C-3.51722656 4.73878906 -2.97195313 3.91507812 -2.41015625 3.06640625 C-1 1 -1 1 0 0 Z " fill="#223D5F" transform="translate(355,490)"/>
<path d="M0 0 C1.32 0.33 2.64 0.66 4 1 C2.83709195 4.48872415 1.86032391 5.09976864 -1.0625 7.1875 C-1.79597656 7.71730469 -2.52945312 8.24710937 -3.28515625 8.79296875 C-3.85105469 9.19128906 -4.41695313 9.58960938 -5 10 C-5.66 9.67 -6.32 9.34 -7 9 C-4.69 6.03 -2.38 3.06 0 0 Z " fill="#D3E7F1" transform="translate(419,446)"/>
<path d="M0 0 C4.58716587 4.44381694 8.78762713 9.20228499 13 14 C12.01 14.495 12.01 14.495 11 15 C7.00030569 12.11133189 4.65932278 9.12653535 2 5 C1.34 4.67 0.68 4.34 0 4 C0 2.68 0 1.36 0 0 Z " fill="#237286" transform="translate(531,450)"/>
<path d="M0 0 C0.62109375 1.8359375 0.62109375 1.8359375 1 4 C-0.9375 6.625 -0.9375 6.625 -3 9 C-3 9.66 -3 10.32 -3 11 C-4.32 11.33 -5.64 11.66 -7 12 C-6.67566492 6.64847115 -3.50295176 3.71719957 0 0 Z " fill="#1F517A" transform="translate(467,386)"/>
<path d="M0 0 C0.33 0.66 0.66 1.32 1 2 C0.34 2 -0.32 2 -1 2 C-2.15077953 4.21936052 -3.09849728 6.30252735 -3.875 8.6875 C-5 11 -5 11 -7.125 11.8125 C-7.74375 11.874375 -8.3625 11.93625 -9 12 C-9 9 -9 9 -7.5 7.3125 C-7.005 6.879375 -6.51 6.44625 -6 6 C-6.33 5.34 -6.66 4.68 -7 4 C-6.34 4 -5.68 4 -5 4 C-5 3.34 -5 2.68 -5 2 C-3.35 1.34 -1.7 0.68 0 0 Z " fill="#348888" transform="translate(677,556)"/>
<path d="M0 0 C0.33 0.66 0.66 1.32 1 2 C1.66 2.33 2.32 2.66 3 3 C0.92856799 7.03384128 -0.96615872 8.92856799 -5 11 C-5.33 10.34 -5.66 9.68 -6 9 C-4.02 6.03 -2.04 3.06 0 0 Z " fill="#233F59" transform="translate(336,515)"/>
<path d="M0 0 C-2.64 1.98 -5.28 3.96 -8 6 C-8 5.34 -8 4.68 -8 4 C-9.32 3.34 -10.64 2.68 -12 2 C-10.75579353 1.4654744 -9.50429064 0.94791389 -8.25 0.4375 C-7.55390625 0.14746094 -6.8578125 -0.14257812 -6.140625 -0.44140625 C-4 -1 -4 -1 0 0 Z " fill="#204863" transform="translate(694,512)"/>
<path d="M0 0 C0.66 0 1.32 0 2 0 C2 1.32 2 2.64 2 4 C3.32 4.33 4.64 4.66 6 5 C4.08249714 4.91256669 2.16593335 4.8043811 0.25 4.6875 C-0.81734375 4.62949219 -1.8846875 4.57148437 -2.984375 4.51171875 C-6 4 -6 4 -10 1 C-6.7 1 -3.4 1 0 1 C0 0.67 0 0.34 0 0 Z " fill="#B28445" transform="translate(390,564)"/>
<path d="M0 0 C0 0.33 0 0.66 0 1 C2.31 1.33 4.62 1.66 7 2 C7 2.33 7 2.66 7 3 C2.38 3.33 -2.24 3.66 -7 4 C-7 3.01 -7 2.02 -7 1 C-3.375 -1.125 -3.375 -1.125 0 0 Z " fill="#A36E4D" transform="translate(345,537)"/>
<path d="M0 0 C0.33 0 0.66 0 1 0 C1.19335938 0.96421875 1.38671875 1.9284375 1.5859375 2.921875 C1.84632813 4.18515625 2.10671875 5.4484375 2.375 6.75 C2.63023437 8.00296875 2.88546875 9.2559375 3.1484375 10.546875 C3.8430125 13.36340848 4.55680083 15.51518752 6 18 C5.34 18.66 4.68 19.32 4 20 C1.43576041 13.82251371 -0.29601569 7.67611785 -1 1 C-0.67 0.67 -0.34 0.34 0 0 Z " fill="#639996" transform="translate(502,388)"/>
<path d="M0 0 C1.05960937 0.00676758 1.05960937 0.00676758 2.140625 0.01367188 C3.88545275 0.02546125 5.630237 0.04339676 7.375 0.0625 C7.375 0.3925 7.375 0.7225 7.375 1.0625 C0.94 1.5575 0.94 1.5575 -5.625 2.0625 C-5.625 2.7225 -5.625 3.3825 -5.625 4.0625 C-6.285 4.0625 -6.945 4.0625 -7.625 4.0625 C-7.625 3.4025 -7.625 2.7425 -7.625 2.0625 C-8.285 1.7325 -8.945 1.4025 -9.625 1.0625 C-6.55966836 -0.47016582 -3.35745728 -0.04026471 0 0 Z " fill="#B17D48" transform="translate(375.625,556.9375)"/>
<path d="M0 0 C0.66 0.99 1.32 1.98 2 3 C0.49776416 7.20626034 -2.28550034 8.73900021 -6 11 C-6.66 10.67 -7.32 10.34 -8 10 C-7.50628906 9.44570313 -7.01257813 8.89140625 -6.50390625 8.3203125 C-5.86324219 7.59585937 -5.22257812 6.87140625 -4.5625 6.125 C-3.92441406 5.40570313 -3.28632813 4.68640625 -2.62890625 3.9453125 C-0.94985535 2.09249509 -0.94985535 2.09249509 0 0 Z " fill="#2F638A" transform="translate(437,432)"/>
<path d="M0 0 C0.99 0 1.98 0 3 0 C1.80100302 3.0831351 0.52299523 6.06279492 -1 9 C-1.66 9 -2.32 9 -3 9 C-3 8.01 -3 7.02 -3 6 C-3.99 5.67 -4.98 5.34 -6 5 C-4.515 4.0409375 -4.515 4.0409375 -3 3.0625 C-2.01 2.381875 -1.02 1.70125 0 1 C0 0.67 0 0.34 0 0 Z " fill="#AD7C58" transform="translate(617,611)"/>
<path d="M0 0 C3.2826932 1.49076434 5.93077441 3.38620321 8.75 5.625 C9.94882812 6.57246094 9.94882812 6.57246094 11.171875 7.5390625 C11.77515625 8.02117188 12.3784375 8.50328125 13 9 C9.61244725 9 7.99686799 8.56978799 5 7 C3.10640627 5.10640627 1.60936995 3.16115394 0 1 C0 0.67 0 0.34 0 0 Z " fill="#E1BD7C" transform="translate(476,587)"/>
<path d="M0 0 C0 3.32058331 -0.43061972 5.08543662 -2 8 C-4.625 9.3125 -4.625 9.3125 -7 10 C-7 9.34 -7 8.68 -7 8 C-7.66 7.67 -8.32 7.34 -9 7 C-6.03 4.69 -3.06 2.38 0 0 Z " fill="#2A5A80" transform="translate(425,446)"/>
<path d="M0 0 C6.74233419 -0.12910853 13.30386804 0.202163 20 1 C20 1.33 20 1.66 20 2 C12.08 2.495 12.08 2.495 4 3 C4 2.34 4 1.68 4 1 C2.68 0.67 1.36 0.34 0 0 Z " fill="#A56F3F" transform="translate(554,625)"/>
<path d="M0 0 C5.11365014 1.0681847 10.07227969 2.23107476 15 4 C14.67 4.99 14.34 5.98 14 7 C13.05125 6.67 12.1025 6.34 11.125 6 C8.22937548 4.89840809 8.22937548 4.89840809 6 5 C6 4.34 6 3.68 6 3 C4.02 2.34 2.04 1.68 0 1 C0 0.67 0 0.34 0 0 Z " fill="#BA8B5A" transform="translate(519,615)"/>
<path d="M0 0 C2.31 0 4.62 0 7 0 C2.74276476 3.88704087 -3.27543399 6 -9 6 C-9 5.34 -9 4.68 -9 4 C-8.43410156 3.87882813 -7.86820313 3.75765625 -7.28515625 3.6328125 C-6.18494141 3.38144531 -6.18494141 3.38144531 -5.0625 3.125 C-4.33160156 2.96257813 -3.60070312 2.80015625 -2.84765625 2.6328125 C-0.79299706 2.17038477 -0.79299706 2.17038477 0 0 Z " fill="#104663" transform="translate(664,525)"/>
<path d="M0 0 C0.33 0.99 0.66 1.98 1 3 C-1.37705019 7.29697535 -4.03381225 10.13553107 -8 13 C-6.40956621 7.91061189 -3.2553049 4.12543357 0 0 Z " fill="#243E60" transform="translate(367,473)"/>
<path d="M0 0 C0.99 0.66 1.98 1.32 3 2 C2.42365861 6.75481646 0.44931479 9.97048212 -2 14 C-2.6875 12.3125 -2.6875 12.3125 -3 10 C-2.0126546 8.32580562 -1.01187895 6.65948148 0 5 C0.25196129 2.29046449 0.25196129 2.29046449 0 0 Z " fill="#2D5676" transform="translate(436,409)"/>
<path d="M0 0 C-3.26613695 1.91302307 -5.99445248 2.35674661 -9.75 2.625 C-10.73484375 2.69976563 -11.7196875 2.77453125 -12.734375 2.8515625 C-13.48203125 2.90054688 -14.2296875 2.94953125 -15 3 C-12.41464321 1.27642881 -10.96188386 0.55264982 -8.0625 -0.1875 C-7.39347656 -0.36667969 -6.72445312 -0.54585937 -6.03515625 -0.73046875 C-3.75319112 -1.03268678 -2.17973341 -0.68756692 0 0 Z " fill="#A66A43" transform="translate(634,592)"/>
<path d="M0 0 C1 2 1 2 0.25 5.0625 C-0.1625 6.031875 -0.575 7.00125 -1 8 C-1.99 8.33 -2.98 8.66 -4 9 C-4.33 7.35 -4.66 5.7 -5 4 C-3.35 2.68 -1.7 1.36 0 0 Z " fill="#287777" transform="translate(337,521)"/>
<path d="M0 0 C0 3 0 3 -1.4375 4.5 C-1.953125 4.995 -2.46875 5.49 -3 6 C-3.33 6.99 -3.66 7.98 -4 9 C-4.66 9 -5.32 9 -6 9 C-5.67 7.35 -5.34 5.7 -5 4 C-5.66 3.67 -6.32 3.34 -7 3 C-4.69 2.01 -2.38 1.02 0 0 Z " fill="#A16E50" transform="translate(658,581)"/>
<path d="M0 0 C1.32 1.32 2.64 2.64 4 4 C2.68 4.33 1.36 4.66 0 5 C0.33 6.65 0.66 8.3 1 10 C-0.98 8.35 -2.96 6.7 -5 5 C-4.34 4.34 -3.68 3.68 -3 3 C-3 3.66 -3 4.32 -3 5 C-1.68 4.67 -0.36 4.34 1 4 C0.67 2.68 0.34 1.36 0 0 Z " fill="#DDF0E7" transform="translate(604,450)"/>
<path d="M0 0 C2.51471866 2.51471866 3.15955106 4.56816682 4 8 C3.01 9.485 3.01 9.485 2 11 C0.4375 10 0.4375 10 -1 8 C-0.96726452 5.23385218 -0.49404328 2.73969453 0 0 Z " fill="#25415B" transform="translate(331,763)"/>
<path d="M0 0 C6.6 0 13.2 0 20 0 C20 0.33 20 0.66 20 1 C18.87980469 1.06058594 17.75960938 1.12117187 16.60546875 1.18359375 C15.13280016 1.26801424 13.66014456 1.35266149 12.1875 1.4375 C11.44951172 1.47681641 10.71152344 1.51613281 9.95117188 1.55664062 C6.76928658 1.74381035 4.03837622 1.98720793 1 3 C0.67 2.01 0.34 1.02 0 0 Z " fill="#F2DDC2" transform="translate(352,565)"/>
<path d="M0 0 C4.55105375 0.54179211 8.06386006 1.62000841 12 4 C12.33 4.99 12.66 5.98 13 7 C12.34 7 11.68 7 11 7 C10.67 6.34 10.34 5.68 10 5 C8.0085944 4.61866701 6.00720923 4.28674418 4 4 C3.34 3.67 2.68 3.34 2 3 C2 2.34 2 1.68 2 1 C1.34 0.67 0.68 0.34 0 0 Z " fill="#D1AA6C" transform="translate(450,535)"/>
<path d="M0 0 C1.32 0 2.64 0 4 0 C4.33 0.99 4.66 1.98 5 3 C2.03821227 4.67110042 -0.37071192 5.32682752 -3.75 5.625 C-4.54921875 5.69976563 -5.3484375 5.77453125 -6.171875 5.8515625 C-7.07679688 5.92503906 -7.07679688 5.92503906 -8 6 C-5.23776722 3.23776722 -2.79293383 3.42143709 1 3 C0.67 2.01 0.34 1.02 0 0 Z " fill="#5B8B7E" transform="translate(679,511)"/>
<path d="M0 0 C4.10958767 1.45044271 7.43258745 3.51110752 11 6 C10.01 6.33 9.02 6.66 8 7 C7.01 6.34 6.02 5.68 5 5 C4.67 5.66 4.34 6.32 4 7 C3.67 5.35 3.34 3.7 3 2 C2.01 1.67 1.02 1.34 0 1 C0 0.67 0 0.34 0 0 Z " fill="#E5C282" transform="translate(485,551)"/>
<path d="M0 0 C2.08304538 -0.05418326 4.16649768 -0.09287551 6.25 -0.125 C7.99023438 -0.15980469 7.99023438 -0.15980469 9.765625 -0.1953125 C12.82786046 -0.0103949 14.44202751 0.39176977 17 2 C14.6739143 2.38063221 12.33944736 2.71269945 10 3 C9.67 2.67 9.34 2.34 9 2 C7.48530552 1.76807135 5.96245438 1.58784762 4.4375 1.4375 C3.61121094 1.35371094 2.78492188 1.26992188 1.93359375 1.18359375 C1.29550781 1.12300781 0.65742188 1.06242188 0 1 C0 0.67 0 0.34 0 0 Z " fill="#B3894A" transform="translate(407,527)"/>
<path d="M0 0 C1.60568666 0.28317926 3.20952047 0.57687791 4.8125 0.875 C6.15248047 1.11863281 6.15248047 1.11863281 7.51953125 1.3671875 C10 2 10 2 13 4 C7.25 5.125 7.25 5.125 5 4 C5 3.34 5 2.68 5 2 C3.35 1.67 1.7 1.34 0 1 C0 0.67 0 0.34 0 0 Z " fill="#1B455E" transform="translate(622,513)"/>
<path d="M0 0 C0.33 0.66 0.66 1.32 1 2 C-2.14753592 5.14753592 -3.56523436 6.29977385 -8 7 C-6.5361389 2.60841671 -4.02168662 2.12052567 0 0 Z " fill="#277B7F" transform="translate(363,505)"/>
<path d="M0 0 C0.99 0.66 1.98 1.32 3 2 C1.21289414 2.86366822 -0.5798465 3.71568594 -2.375 4.5625 C-3.37273437 5.03816406 -4.37046875 5.51382812 -5.3984375 6.00390625 C-6.25695312 6.33261719 -7.11546875 6.66132813 -8 7 C-8.66 6.67 -9.32 6.34 -10 6 C-7.93243723 3.2027092 -6.85559629 2.97307727 -3.3125 2.3125 C-2.219375 2.209375 -1.12625 2.10625 0 2 C0 1.34 0 0.68 0 0 Z " fill="#11425F" transform="translate(373,498)"/>
<path d="M0 0 C5.91492272 0.45224761 11.35199888 1.1582605 17 3 C17 3.33 17 3.66 17 4 C15.10353002 3.88506243 13.20781668 3.75760358 11.3125 3.625 C10.25675781 3.55539062 9.20101563 3.48578125 8.11328125 3.4140625 C5.09322731 3.01239911 2.75921946 2.25930981 0 1 C0 0.67 0 0.34 0 0 Z " fill="#53AFB9" transform="translate(482,490)"/>
<path d="M0 0 C1.57984913 2.01071707 2.94266986 3.88196736 4.0625 6.1875 C4.86702161 8.17892157 4.86702161 8.17892157 7 9 C7 9.66 7 10.32 7 11 C6.01 11.33 5.02 11.66 4 12 C3.32645501 10.56570999 2.66140299 9.12742943 2 7.6875 C1.62875 6.88699219 1.2575 6.08648437 0.875 5.26171875 C0 3 0 3 0 0 Z " fill="#55968C" transform="translate(507,408)"/>
<path d="M0 0 C2.52480693 2.52480693 2.55738633 4.13823034 3.125 7.625 C3.29257812 8.62789063 3.46015625 9.63078125 3.6328125 10.6640625 C3.75398438 11.43492187 3.87515625 12.20578125 4 13 C3.34 13 2.68 13 2 13 C0.24252386 8.49646738 -0.19294408 4.82360189 0 0 Z " fill="#194967" transform="translate(501,394)"/>
<path d="M0 0 C1.79068573 2.6860286 2.66055791 4.6626589 3.625 7.6875 C3.88539063 8.49574219 4.14578125 9.30398438 4.4140625 10.13671875 C4.60742188 10.75160156 4.80078125 11.36648438 5 12 C3.046875 11.3203125 3.046875 11.3203125 1 10 C0.390625 7.6171875 0.390625 7.6171875 0.25 4.875 C0.19328125 3.96492187 0.1365625 3.05484375 0.078125 2.1171875 C0.05234375 1.41851563 0.0265625 0.71984375 0 0 Z " fill="#364C61" transform="translate(323,743)"/>
<path d="M0 0 C3.96 1.32 7.92 2.64 12 4 C11.67 4.66 11.34 5.32 11 6 C10.01 6 9.02 6 8 6 C8 5.34 8 4.68 8 4 C7.236875 4.04125 6.47375 4.0825 5.6875 4.125 C3 4 3 4 0 2 C0 1.34 0 0.68 0 0 Z " fill="#BE915E" transform="translate(539,583)"/>
<path d="M0 0 C0.66 0 1.32 0 2 0 C2 0.99 2 1.98 2 3 C3.32 2.67 4.64 2.34 6 2 C6.99 3.485 6.99 3.485 8 5 C7.34 5 6.68 5 6 5 C5.67 5.66 5.34 6.32 5 7 C2.5 5.1875 2.5 5.1875 0 3 C0 2.01 0 1.02 0 0 Z " fill="#DEB36F" transform="translate(490,582)"/>
<path d="M0 0 C0 0.66 0 1.32 0 2 C-0.99 2 -1.98 2 -3 2 C-3.66 3.98 -4.32 5.96 -5 8 C-7 5 -7 5 -7 2 C-2.25 0 -2.25 0 0 0 Z " fill="#E9F5F1" transform="translate(341,529)"/>
<path d="M0 0 C0.99 0.66 1.98 1.32 3 2 C-1.455 4.97 -1.455 4.97 -6 8 C-4.21844267 4.43688534 -2.83236991 2.64354525 0 0 Z " fill="#0F3954" transform="translate(342,514)"/>
<path d="M0 0 C1.12377697 3.30435084 0.89554742 5.0506862 -0.4375 8.25 C-0.72496094 8.95640625 -1.01242187 9.6628125 -1.30859375 10.390625 C-1.53675781 10.92171875 -1.76492188 11.4528125 -2 12 C-2.66 12 -3.32 12 -4 12 C-2.66666667 8 -1.33333333 4 0 0 Z " fill="#2F465B" transform="translate(342,749)"/>
<path d="M0 0 C4 0 4 0 5.75 1.375 C7 3 7 3 7 5 C7.99 5 8.98 5 10 5 C10 5.66 10 6.32 10 7 C5.56541027 5.6062718 3.12621626 3.39417765 0 0 Z " fill="#D4AA70" transform="translate(480,616)"/>
<path d="M0 0 C0 0.66 0 1.32 0 2 C-5.2734375 5.22265625 -5.2734375 5.22265625 -7 6 C-7.66 5.67 -8.32 5.34 -9 5 C-7.625 3 -7.625 3 -6 1 C-5.34 1 -4.68 1 -4 1 C-2 0 -2 0 0 0 Z " fill="#A16744" transform="translate(640,600)"/>
<path d="M0 0 C-0.33 0.99 -0.66 1.98 -1 3 C-1.99 3.33 -2.98 3.66 -4 4 C-4.33 3.01 -4.66 2.02 -5 1 C-5.99 0.67 -6.98 0.34 -8 0 C-5.13822943 -1.43088528 -3.06624227 -0.59991697 0 0 Z " fill="#113957" transform="translate(686,516)"/>
<path d="M0 0 C0.66 0.33 1.32 0.66 2 1 C-1.32307692 5.8 -1.32307692 5.8 -4.75 6.8125 C-5.4925 6.874375 -6.235 6.93625 -7 7 C-2.25 1.125 -2.25 1.125 0 0 Z " fill="#666867" transform="translate(359,298)"/>
<path d="M0 0 C0.66 0 1.32 0 2 0 C1.43850643 3.25666272 0.62770014 4.95623323 -2 7 C-4.1875 7.6875 -4.1875 7.6875 -6 8 C-6 6 -6 6 -4.125 3.875 C-2 2 -2 2 0 2 C0 1.34 0 0.68 0 0 Z " fill="#725D4E" transform="translate(648,592)"/>
<path d="M0 0 C4.29 0.33 8.58 0.66 13 1 C11 3 11 3 8.1875 3.25 C5.03686185 3.00289113 2.84084818 2.33686973 0 1 C0 0.67 0 0.34 0 0 Z " fill="#A46F44" transform="translate(569,593)"/>
<path d="M0 0 C3.125 0.375 3.125 0.375 6 1 C3.61426621 2.89213369 1.92824652 4.02391783 -1 5 C-1.33 4.01 -1.66 3.02 -2 2 C-1.34 1.34 -0.68 0.68 0 0 Z " fill="#388D8F" transform="translate(656,570)"/>
<path d="M0 0 C-2.90092502 1.93395001 -3.89674737 2.30131941 -7.1875 2.625 C-8.445625 2.74875 -9.70375 2.8725 -11 3 C-11.33 2.34 -11.66 1.68 -12 1 C-3.96428571 -1.27678571 -3.96428571 -1.27678571 0 0 Z " fill="#318996" transform="translate(409,491)"/>
<path d="M0 0 C0.66 0 1.32 0 2 0 C3.7143618 1.95927063 5.38405168 3.95880212 7 6 C6.34 7.32 5.68 8.64 5 10 C3.35 6.7 1.7 3.4 0 0 Z " fill="#3E847D" transform="translate(517,429)"/>
<path d="M0 0 C0.66 0.66 1.32 1.32 2 2 C0.02 3.32 -1.96 4.64 -4 6 C-4.66 5.34 -5.32 4.68 -6 4 C-4.60804085 1.2160817 -2.84424221 1.02101003 0 0 Z " fill="#29425B" transform="translate(624,778)"/>
<path d="M0 0 C1.0326802 2.78823655 1.04509293 3.8677274 0.0625 6.75 C-0.288125 7.4925 -0.63875 8.235 -1 9 C-2.32 8.34 -3.64 7.68 -5 7 C-4.360625 6.21625 -3.72125 5.4325 -3.0625 4.625 C-1.01857687 2.20460719 -1.01857687 2.20460719 0 0 Z " fill="#2C4661" transform="translate(620,767)"/>
<path d="M0 0 C2.64 1.65 5.28 3.3 8 5 C7.67 5.99 7.34 6.98 7 8 C3.28631113 6.76210371 2.22645819 5.14775123 0 2 C0 1.34 0 0.68 0 0 Z " fill="#D8B072" transform="translate(490,597)"/>
<path d="M0 0 C0.33 0.66 0.66 1.32 1 2 C4.02934491 2.65772428 4.02934491 2.65772428 7 3 C7 3.99 7 4.98 7 6 C1.25 4.125 1.25 4.125 -1 3 C-0.67 2.01 -0.34 1.02 0 0 Z " fill="#CA9E64" transform="translate(512,596)"/>
<path d="M0 0 C3.55780196 0.60990891 6.6828589 1.5783681 10 3 C10 3.99 10 4.98 10 6 C6.00499382 4.6302836 3.19990508 2.74277578 0 0 Z " fill="#D9B478" transform="translate(438,587)"/>
<path d="M0 0 C1.65 0 3.3 0 5 0 C5 0.66 5 1.32 5 2 C6.65 2.33 8.3 2.66 10 3 C10 3.66 10 4.32 10 5 C6.08788267 3.84414715 3.1254959 2.64465038 0 0 Z " fill="#D6B37F" transform="translate(443,557)"/>
<path d="M0 0 C0.66 0.33 1.32 0.66 2 1 C2.625 3.0625 2.625 3.0625 3 5 C2.01 5.495 2.01 5.495 1 6 C-0.65 4.68 -2.3 3.36 -4 2 C-2.68 2 -1.36 2 0 2 C0 1.34 0 0.68 0 0 Z " fill="#398E8E" transform="translate(500,545)"/>
<path d="M0 0 C0.99 0.33 1.98 0.66 3 1 C0.99020941 4.01468588 0.29263985 4.83789182 -3 6 C-5.25 5.625 -5.25 5.625 -7 5 C-5.5459375 4.5978125 -5.5459375 4.5978125 -4.0625 4.1875 C-3.051875 3.795625 -2.04125 3.40375 -1 3 C-0.67 2.01 -0.34 1.02 0 0 Z " fill="#82644D" transform="translate(599,627)"/>
<path d="M0 0 C2.64 0.33 5.28 0.66 8 1 C8.33 1.99 8.66 2.98 9 4 C5.17902761 3.46930939 2.93828597 2.50298434 0 0 Z " fill="#E4BE7F" transform="translate(464,568)"/>
<path d="M0 0 C0.33 0.515625 0.66 1.03125 1 1.5625 C-6.42857143 1.84821429 -6.42857143 1.84821429 -10 -0.4375 C-2.49230769 -1.79134615 -2.49230769 -1.79134615 0 0 Z " fill="#AD7947" transform="translate(394,539.4375)"/>
<path d="M0 0 C0.99 0.33 1.98 0.66 3 1 C1.68 3.31 0.36 5.62 -1 8 C-1.33 8 -1.66 8 -2 8 C-1.125 1.125 -1.125 1.125 0 0 Z " fill="#345B79" transform="translate(429,426)"/>
<path d="M0 0 C0.66 0 1.32 0 2 0 C1.34 2.31 0.68 4.62 0 7 C-0.66 6.67 -1.32 6.34 -2 6 C-2.625 3.9375 -2.625 3.9375 -3 2 C-2.01 2 -1.02 2 0 2 C0 1.34 0 0.68 0 0 Z " fill="#E3ECF5" transform="translate(335,762)"/>
<path d="M0 0 C-2 2 -2 2 -3.9453125 2.1953125 C-5.96354167 2.13020833 -7.98177083 2.06510417 -10 2 C-3.75 -1.125 -3.75 -1.125 0 0 Z " fill="#655A51" transform="translate(576,641)"/>
<path d="M0 0 C1.32 0.33 2.64 0.66 4 1 C3.34 1 2.68 1 2 1 C1.34 2.32 0.68 3.64 0 5 C-0.66 5 -1.32 5 -2 5 C-2 5.66 -2 6.32 -2 7 C-2.66 6.67 -3.32 6.34 -4 6 C-3.525625 5.38125 -3.05125 4.7625 -2.5625 4.125 C-0.97582559 2.09294454 -0.97582559 2.09294454 0 0 Z " fill="#A06640" transform="translate(644,593)"/>
<path d="M0 0 C0.99 0.33 1.98 0.66 3 1 C-0.465 3.97 -0.465 3.97 -4 7 C-2.92598892 4.08482708 -2.22189824 2.22189824 0 0 Z " fill="#255077" transform="translate(411,412)"/>
</svg>
